<svg version="1.1" id="Layer_1" xmlns="http://www.w3.org/2000/svg" xmlns:xlink="http://www.w3.org/1999/xlink" x="0px" y="0px"
	 width="100%" viewBox="0 0 500 500" enable-background="new 0 0 500 500" xml:space="preserve">
<path fill="#000000" opacity="1.000000" stroke="none" 
	d="
M245.000000,501.000000 
	C163.333359,501.000000 82.166702,501.000000 1.000044,501.000000 
	C1.000029,334.333405 1.000029,167.666779 1.000015,1.000133 
	C167.666565,1.000089 334.333130,1.000089 500.999756,1.000044 
	C500.999847,167.666519 500.999847,334.333038 500.999939,500.999786 
	C415.833344,501.000000 330.666656,501.000000 245.000000,501.000000 
M259.624207,250.849197 
	C260.081268,250.495102 260.538300,250.141006 261.669861,249.794037 
	C274.004486,235.795975 294.797516,235.078232 307.913879,248.362473 
	C314.439087,254.971191 324.390259,254.196716 329.313141,250.044678 
	C336.740845,243.779968 344.583221,238.612259 354.974884,238.748795 
	C354.974884,235.213730 355.027435,232.071991 354.964783,228.932541 
	C354.792999,220.325729 345.488190,209.040619 338.933624,208.447006 
	C338.626984,208.361542 338.320343,208.276077 337.279999,208.042725 
	C336.536774,207.984528 335.793579,207.926331 334.627167,207.100601 
	C309.765991,207.034271 284.904846,206.967926 259.996399,205.979721 
	C259.916931,200.658142 259.837463,195.336563 259.927155,189.330444 
	C258.947144,189.208633 257.967102,189.086823 256.071136,189.052917 
	C252.381668,189.030945 248.692200,189.008972 244.711411,188.345291 
	C243.886978,188.901535 243.062546,189.457779 242.085220,190.668686 
	C242.130112,191.112061 242.175003,191.555450 242.050461,192.492950 
	C242.103760,192.658722 242.157043,192.824493 242.063950,193.910080 
	C242.009323,198.262207 241.954712,202.614349 240.976578,206.999359 
	C234.982025,207.069153 228.987473,207.138962 222.068649,207.048798 
	C211.374329,207.105194 200.680023,207.161591 189.506531,207.053696 
	C189.344788,207.102203 189.183044,207.150696 188.097870,207.041779 
	C183.394424,207.093124 178.690979,207.144485 173.501892,207.053329 
	C173.342377,207.108231 173.182861,207.163132 172.352249,207.071350 
	C171.899139,207.117035 171.446045,207.162704 170.505386,207.045197 
	C170.341980,207.096863 170.178589,207.148529 169.230362,207.059875 
	C167.998352,207.381393 166.771027,207.722244 165.533600,208.021301 
	C156.577972,210.185608 150.503159,215.712311 148.349731,224.555939 
	C147.312164,228.817001 148.170807,233.539780 148.170807,238.473190 
	C148.002182,238.374451 148.422272,238.836319 148.836945,238.831528 
	C158.282715,238.722046 165.594147,243.239716 172.062958,249.535446 
	C176.950134,254.291855 188.528061,254.364288 193.630219,248.951324 
	C196.423523,245.987808 199.685562,242.804886 203.370544,241.463806 
	C215.725662,236.967346 227.586990,237.965073 238.117004,247.573074 
	C238.645874,247.626251 239.174728,247.679413 239.868469,248.186447 
	C239.988632,248.520081 240.221939,248.724579 240.859940,249.249924 
	C243.897980,250.525787 246.936035,251.801636 250.125381,253.686264 
	C250.748672,253.454880 251.371979,253.223480 252.747559,252.923676 
	C253.496445,252.858231 254.245331,252.792786 255.669312,252.899765 
	C256.800812,252.276886 257.932312,251.654007 259.624207,250.849197 
M269.315308,262.193573 
	C266.551941,263.877625 263.788574,265.561676 260.314087,267.103943 
	C259.216400,267.487152 258.118683,267.870392 256.118286,268.075684 
	C253.071823,268.142883 250.025345,268.210083 246.188248,268.114624 
	C244.140106,267.735413 242.091965,267.356171 239.907532,266.468628 
	C239.608490,266.391327 239.309448,266.314026 238.346008,265.937408 
	C235.512039,264.089996 232.419022,262.540527 229.890396,260.341919 
	C220.520889,252.195419 214.829041,251.901093 205.032242,259.460663 
	C203.747910,260.451721 202.428543,261.397308 201.131500,262.372009 
	C195.239334,266.799988 188.282852,268.983978 181.245285,268.784607 
	C172.647049,268.541016 165.085373,264.602081 158.851807,258.419800 
	C155.654877,255.249207 151.639389,254.178604 147.065643,254.048096 
	C147.065643,270.350586 147.054825,286.149811 147.101746,301.948883 
	C147.103806,302.644012 147.633804,303.337555 148.278885,304.731995 
	C149.841095,304.742889 151.403305,304.753784 153.820358,304.911438 
	C155.550293,304.860901 157.280243,304.810394 159.657562,304.936127 
	C160.097733,304.880341 160.537918,304.824554 161.905350,304.932892 
	C190.678055,304.933411 219.450775,304.950592 248.223465,304.930054 
	C280.484955,304.907013 312.746460,304.849823 345.905823,304.978943 
	C348.514221,304.978943 351.122620,304.978943 353.577759,304.978943 
	C354.091644,301.931732 354.863831,299.396698 354.890167,296.853912 
	C355.026337,283.722229 354.935364,270.588318 355.007996,257.455658 
	C355.026886,254.037827 353.062439,253.254089 350.538818,254.346619 
	C347.627808,255.606903 344.726746,257.233002 342.341797,259.300537 
	C335.471863,265.256165 327.613068,269.217224 318.596405,268.800415 
	C310.066833,268.406067 302.294220,264.661194 296.200623,258.541809 
	C289.790283,252.104324 279.192993,252.841644 272.358124,260.108582 
	C271.576569,260.795715 270.795013,261.482849 269.315308,262.193573 
M230.500000,376.015381 
	C246.494217,376.015900 262.488434,376.018036 278.482635,376.016571 
	C298.641907,376.014709 318.801636,376.069061 338.959503,375.898346 
	C340.638947,375.884125 343.413788,374.692749 343.803680,373.456573 
	C347.100067,363.005280 350.254761,352.486023 352.775452,341.827240 
	C353.554962,338.531158 354.674103,337.836426 357.606659,337.901428 
	C364.024200,338.043640 370.447083,337.945465 376.679077,337.945465 
	C376.679077,331.548950 376.679077,325.810608 376.679077,320.354950 
	C292.948700,320.354950 209.564117,320.354950 126.369148,320.354950 
	C126.369148,326.434937 126.369148,332.160706 126.369148,337.961823 
	C131.930145,337.961823 137.129303,338.339264 142.244247,337.845123 
	C146.509583,337.433075 148.026688,339.367798 148.996216,342.953888 
	C151.972229,353.961578 155.093353,364.930023 158.186279,376.014832 
	C182.207809,376.014832 205.853897,376.014832 230.500000,376.015381 
M236.965485,143.585587 
	C227.805450,155.958481 234.617157,171.283752 247.651169,173.661011 
	C255.126373,175.024429 261.343292,172.592239 265.899384,166.495651 
	C269.923370,161.111069 271.377319,154.631561 268.098236,148.938675 
	C263.364777,140.720886 257.243317,133.302582 251.189377,124.806740 
	C246.181458,131.463974 241.828705,137.250259 236.965485,143.585587 
z"/>
<path fill="#EDE5F4" opacity="1.000000" stroke="none" 
	d="
M230.000000,376.015106 
	C205.853897,376.014832 182.207809,376.014832 158.186279,376.014832 
	C155.093353,364.930023 151.972229,353.961578 148.996216,342.953888 
	C148.026688,339.367798 146.509583,337.433075 142.244247,337.845123 
	C137.129303,338.339264 131.930145,337.961823 126.369148,337.961823 
	C126.369148,332.160706 126.369148,326.434937 126.369148,320.354950 
	C209.564117,320.354950 292.948700,320.354950 376.679077,320.354950 
	C376.679077,325.810608 376.679077,331.548950 376.679077,337.945465 
	C370.447083,337.945465 364.024200,338.043640 357.606659,337.901428 
	C354.674103,337.836426 353.554962,338.531158 352.775452,341.827240 
	C350.254761,352.486023 347.100067,363.005280 343.803680,373.456573 
	C343.413788,374.692749 340.638947,375.884125 338.959503,375.898346 
	C318.801636,376.069061 298.641907,376.014709 278.482635,376.016571 
	C262.488434,376.018036 246.494217,376.015900 230.000000,376.015106 
M371.297455,323.358124 
	C363.569702,323.433258 355.841949,323.508392 347.218719,323.458099 
	C345.113037,323.498077 343.007385,323.538055 340.024078,323.294281 
	C339.692780,323.263611 339.361511,323.206177 339.030212,323.206024 
	C270.316833,323.175934 201.603439,323.145844 132.890045,323.155487 
	C131.636887,323.155670 130.383804,323.631409 128.851227,324.789032 
	C128.851227,328.026398 128.851227,331.263733 128.851227,334.884338 
	C134.785660,334.884338 140.069580,335.140198 145.314072,334.795715 
	C148.899887,334.560181 150.145859,336.022827 151.015900,339.244385 
	C153.720535,349.258972 156.750885,359.185608 159.711990,369.812408 
	C160.071320,370.579742 160.430634,371.347046 160.811874,372.177460 
	C160.811874,372.177460 160.863937,372.219208 161.338730,372.961853 
	C163.153976,373.065521 164.969269,373.260315 166.784485,373.259613 
	C222.640671,373.237518 278.496857,373.196014 334.353058,373.158234 
	C341.144562,373.153625 341.144562,373.155518 342.665619,365.694092 
	C342.834747,364.832458 343.003876,363.970795 343.653198,362.535767 
	C344.837158,357.831848 346.021118,353.127899 347.698242,347.804993 
	C348.937683,343.743805 348.996338,338.116486 351.738739,336.048798 
	C354.654572,333.850372 360.113861,335.025848 364.462341,334.725586 
	C364.625061,334.714355 364.785919,334.676880 365.844086,334.822937 
	C368.252655,334.392181 372.608643,334.259338 372.728088,333.478424 
	C373.209961,330.328278 372.384613,326.978180 371.297455,323.358124 
z"/>
<path fill="#F2E7F9" opacity="1.000000" stroke="none" 
	d="
M147.917877,304.031860 
	C147.633804,303.337555 147.103806,302.644012 147.101746,301.948883 
	C147.054825,286.149811 147.065643,270.350586 147.065643,254.048096 
	C151.639389,254.178604 155.654877,255.249207 158.851807,258.419800 
	C165.085373,264.602081 172.647049,268.541016 181.245285,268.784607 
	C188.282852,268.983978 195.239334,266.799988 201.131500,262.372009 
	C202.428543,261.397308 203.747910,260.451721 205.032242,259.460663 
	C214.829041,251.901093 220.520889,252.195419 229.890396,260.341919 
	C232.419022,262.540527 235.512039,264.089996 238.802689,266.270081 
	C239.473389,266.826935 239.734879,266.951691 240.043823,266.976959 
	C242.091965,267.356171 244.140106,267.735413 246.705612,268.555145 
	C250.600983,270.227203 253.977600,271.440399 257.020966,268.253601 
	C258.118683,267.870392 259.216400,267.487152 260.907166,267.382568 
	C263.005676,267.799225 264.511078,267.937286 265.767700,268.315918 
	C262.652771,269.581757 259.786652,270.607056 256.464294,271.631409 
	C245.351532,272.875671 236.007935,269.915588 227.854065,262.967316 
	C226.769333,262.042969 225.343994,261.518311 223.844147,260.519836 
	C216.343002,255.236282 210.524857,258.041595 204.751266,263.280090 
	C201.884903,265.880798 198.204865,267.584717 194.515045,269.772522 
	C192.205795,270.572113 190.280411,271.309998 188.342010,272.011932 
	C181.613953,274.448364 175.626984,270.916016 169.306946,269.640930 
	C169.253845,269.643188 169.230331,269.746826 169.123016,269.501221 
	C168.675049,269.169403 168.334427,269.083160 167.740891,268.769897 
	C165.049362,267.000397 162.610748,265.457886 160.007751,263.650940 
	C159.291580,263.155426 158.739761,262.924377 158.228638,262.722687 
	C158.269348,262.752045 158.295380,262.655121 158.211700,262.367737 
	C157.474564,261.648438 156.821106,261.216492 156.131897,260.814453 
	C156.096130,260.844391 156.173584,260.896393 156.097961,260.626495 
	C155.696045,260.196503 155.369766,260.036438 155.040222,259.918945 
	C155.036972,259.961487 155.109024,259.915741 154.901062,259.591003 
	C153.568619,258.781158 152.444138,258.296082 150.946259,257.649933 
	C150.946259,272.717102 150.946259,287.096375 150.946259,301.789734 
	C173.199997,301.789734 195.123795,301.789734 217.505646,301.869202 
	C220.129974,301.963348 222.296249,301.989960 224.462509,301.990967 
	C265.957672,302.009857 307.452850,302.025757 348.907410,302.373413 
	C347.580505,303.405579 346.294220,304.106537 345.007935,304.807495 
	C312.746460,304.849823 280.484955,304.907013 248.223465,304.930054 
	C219.450775,304.950592 190.678055,304.933411 161.286407,304.664703 
	C160.115036,304.517639 159.562607,304.638794 159.010178,304.759888 
	C157.280243,304.810394 155.550293,304.860901 153.102570,304.611694 
	C150.895813,304.218567 149.406845,304.125214 147.917877,304.031860 
z"/>
<path fill="#F3EDF7" opacity="1.000000" stroke="none" 
	d="
M240.568420,248.799927 
	C240.221939,248.724579 239.988632,248.520081 239.373840,247.715805 
	C238.572021,247.167725 238.264862,247.090271 237.957687,247.012833 
	C227.586990,237.965073 215.725662,236.967346 203.370544,241.463806 
	C199.685562,242.804886 196.423523,245.987808 193.630219,248.951324 
	C188.528061,254.364288 176.950134,254.291855 172.062958,249.535446 
	C165.594147,243.239716 158.282715,238.722046 148.836945,238.831528 
	C148.422272,238.836319 148.002182,238.374451 148.170807,238.473190 
	C148.170807,233.539780 147.312164,228.817001 148.349731,224.555939 
	C150.503159,215.712311 156.577972,210.185608 165.533600,208.021301 
	C166.771027,207.722244 167.998352,207.381393 169.715332,207.268372 
	C170.200302,207.476868 170.652298,207.548141 170.652298,207.548141 
	C170.652298,207.548141 170.992935,207.208389 170.992935,207.208389 
	C171.446045,207.162704 171.899139,207.117035 172.780396,207.281464 
	C173.208542,207.491577 173.659576,207.544937 173.659576,207.544937 
	C173.659576,207.544937 173.987534,207.195831 173.987534,207.195831 
	C178.690979,207.144485 183.394424,207.093124 188.649261,207.259369 
	C189.200638,207.476944 189.647919,207.554459 189.647919,207.554459 
	C189.647919,207.554459 189.985703,207.217987 189.985703,207.217987 
	C200.680023,207.161591 211.374329,207.105194 222.648514,207.503815 
	C229.623795,208.187210 236.019211,208.415604 242.414627,208.643982 
	C242.243118,208.084824 242.071609,207.525650 241.900101,206.966476 
	C241.954712,202.614349 242.009323,198.262207 242.276611,193.356308 
	C242.535645,192.701126 242.648315,192.562683 242.616165,192.505157 
	C242.512848,192.320282 242.356049,192.165329 242.219879,191.998825 
	C242.175003,191.555450 242.130112,191.112061 242.477875,190.343185 
	C243.581268,189.674118 244.291992,189.330551 245.002716,188.987000 
	C248.692200,189.008972 252.381668,189.030945 256.711548,189.263504 
	C258.153992,189.654388 258.955994,189.834686 259.757996,190.014984 
	C259.837463,195.336563 259.916931,200.658142 260.005615,206.787811 
	C260.025665,208.058838 260.036469,208.521790 259.667480,208.991928 
	C258.527985,208.998352 257.768250,208.997574 256.952240,208.531982 
	C256.895935,202.956680 256.895935,197.846237 256.895935,192.601807 
	C252.801239,192.601807 249.257477,192.601807 245.224686,192.601807 
	C245.224686,195.313049 245.384430,198.104263 245.183777,200.869324 
	C244.938858,204.244537 244.391327,207.597824 243.510529,210.901825 
	C232.699356,210.876114 222.352280,210.909180 211.540298,210.873596 
	C199.701813,210.732101 188.328232,210.659256 176.789886,210.445801 
	C176.100540,210.399567 175.576004,210.493958 174.617493,210.633789 
	C172.439072,210.653900 170.694595,210.628586 168.849731,210.503189 
	C168.443085,210.303619 168.209152,210.397690 167.773926,210.775238 
	C167.327225,210.948151 167.154099,211.031128 166.620865,211.100815 
	C164.976746,211.688141 163.692719,212.288773 162.333801,212.802734 
	C162.258881,212.716064 162.053406,212.817413 161.693939,212.853180 
	C159.805038,214.176590 158.275604,215.464218 156.765610,216.798157 
	C156.785065,216.844482 156.866257,216.785324 156.574554,216.823273 
	C156.110352,217.196518 155.937881,217.531815 155.811050,217.834473 
	C155.856705,217.801804 155.765671,217.736099 155.478775,217.839752 
	C154.774872,218.621643 154.357849,219.299881 153.970184,219.986740 
	C153.999527,219.995377 153.972214,219.940643 153.686401,220.167496 
	C150.505188,225.211655 150.430756,230.370911 151.244705,235.674301 
	C153.336029,236.036530 155.133896,236.347916 157.306335,236.806580 
	C161.929153,239.282730 166.543732,241.130264 170.356216,244.031708 
	C181.324478,252.379013 183.668503,252.515274 194.660202,243.903336 
	C196.981415,242.084702 199.505173,240.524582 202.288483,238.742218 
	C205.788834,237.693939 208.936279,236.748825 212.525818,235.847076 
	C223.804642,235.852005 233.670288,238.473465 241.309464,246.942993 
	C240.857208,247.957260 240.712814,248.378586 240.568420,248.799927 
z"/>
<path fill="#E4EEF3" opacity="1.000000" stroke="none" 
	d="
M257.008545,208.996796 
	C257.768250,208.997574 258.527985,208.998352 260.042511,208.988281 
	C261.615204,208.852905 262.433594,208.616196 263.250824,208.620209 
	C285.312531,208.728531 307.373993,208.889374 329.435760,208.940277 
	C331.306458,208.944595 333.178772,208.242188 335.050354,207.868118 
	C335.793579,207.926331 336.536774,207.984528 337.784821,208.302734 
	C338.517975,208.790787 338.792725,208.920517 339.113922,208.951904 
	C345.488190,209.040619 354.792999,220.325729 354.964783,228.932541 
	C355.027435,232.071991 354.974884,235.213730 354.974884,238.748795 
	C344.583221,238.612259 336.740845,243.779968 329.313141,250.044678 
	C324.390259,254.196716 314.439087,254.971191 307.913879,248.362473 
	C294.797516,235.078232 274.004486,235.795975 261.329559,249.351044 
	C260.884094,248.038208 260.778931,247.168381 260.845520,246.041809 
	C262.797028,244.222275 264.576752,242.659500 266.604858,240.908447 
	C268.274994,239.878860 269.696747,239.037567 271.516357,238.167130 
	C280.118195,235.099777 288.449585,235.295807 296.877014,237.141205 
	C296.907562,237.126633 296.909973,237.059006 296.996582,237.275452 
	C297.323120,237.729095 297.609436,237.819702 298.173553,237.867310 
	C298.572845,237.991180 298.740692,238.011429 299.134338,238.282669 
	C300.220032,238.744781 301.079956,238.955872 301.927979,239.119583 
	C301.916107,239.072205 301.862579,239.153946 301.993469,239.444580 
	C303.039642,240.259476 303.954895,240.783737 305.042847,241.588318 
	C307.542267,243.754562 309.782440,245.761551 312.213776,247.501343 
	C317.336853,251.167252 322.193115,250.997742 327.500397,247.102417 
	C327.694916,247.030045 328.012390,246.762558 328.282593,246.698975 
	C329.054199,246.100906 329.555542,245.566437 330.276306,244.954926 
	C330.780884,244.713593 330.964508,244.472092 331.289185,244.039307 
	C331.718506,243.632309 331.905304,243.339432 332.052856,243.039108 
	C332.013611,243.031677 332.053070,243.101120 332.318481,243.033859 
	C332.762360,242.670303 332.940857,242.374008 333.110291,242.124161 
	C333.101227,242.170593 333.193604,242.190994 333.480103,242.156067 
	C334.212250,241.760712 334.657928,241.400299 335.452087,240.991745 
	C339.537720,239.321213 343.274902,237.698822 347.342926,236.082672 
	C348.279175,235.855682 348.884552,235.622482 349.874207,235.267609 
	C350.477539,232.445862 350.696625,229.745743 350.944519,226.667694 
	C348.694672,217.114929 342.451965,211.534119 333.495056,210.993332 
	C318.354279,210.945908 303.673248,210.980789 288.527130,210.956268 
	C279.149963,210.873016 270.236206,210.930252 261.327576,210.743912 
	C259.876343,210.713547 258.447662,209.606293 257.008545,208.996796 
z"/>
<path fill="#DFE4EB" opacity="1.000000" stroke="none" 
	d="
M345.456879,304.893219 
	C346.294220,304.106537 347.580505,303.405579 349.180450,302.304016 
	C349.920563,301.617035 350.346985,301.330597 350.886047,300.587708 
	C350.970947,296.101196 350.943207,292.071075 350.957275,287.772003 
	C350.972504,287.323517 350.945831,287.144012 350.983948,286.502960 
	C351.048737,276.821625 351.048737,267.601837 351.048737,256.732422 
	C345.807159,260.778809 341.819366,263.857300 337.501862,267.053040 
	C333.093628,268.729950 329.015137,270.289642 324.548584,271.982849 
	C318.369812,274.628113 313.275299,271.438141 307.654907,269.945282 
	C302.703918,266.660919 297.945251,263.710571 293.422302,260.434692 
	C289.145844,257.337341 284.802734,256.597931 279.663727,258.951599 
	C277.229431,260.367218 275.143433,261.749268 273.047394,262.724274 
	C273.006775,261.503723 272.976196,260.690277 272.945587,259.876801 
	C279.192993,252.841644 289.790283,252.104324 296.200623,258.541809 
	C302.294220,264.661194 310.066833,268.406067 318.596405,268.800415 
	C327.613068,269.217224 335.471863,265.256165 342.341797,259.300537 
	C344.726746,257.233002 347.627808,255.606903 350.538818,254.346619 
	C353.062439,253.254089 355.026886,254.037827 355.007996,257.455658 
	C354.935364,270.588318 355.026337,283.722229 354.890167,296.853912 
	C354.863831,299.396698 354.091644,301.931732 353.577759,304.978943 
	C351.122620,304.978943 348.514221,304.978943 345.456879,304.893219 
z"/>
<path fill="#E4EEF3" opacity="1.000000" stroke="none" 
	d="
M237.220734,143.311066 
	C241.828705,137.250259 246.181458,131.463974 251.189377,124.806740 
	C257.243317,133.302582 263.364777,140.720886 268.098236,148.938675 
	C271.377319,154.631561 269.923370,161.111069 265.899384,166.495651 
	C261.343292,172.592239 255.126373,175.024429 247.651169,173.661011 
	C234.617157,171.283752 227.805450,155.958481 237.220734,143.311066 
M264.576172,161.957672 
	C264.689270,161.644516 264.802368,161.331375 265.324982,160.307785 
	C265.422577,157.375092 266.638367,153.817764 265.412964,151.624115 
	C261.365753,144.379059 256.436615,137.626663 251.404327,130.017258 
	C248.139877,134.445343 245.702637,137.751373 242.974121,141.453308 
	C242.974121,141.453308 242.890640,141.937698 242.907257,141.895187 
	C242.907257,141.895187 242.862793,141.876938 242.288177,142.234604 
	C240.908875,144.082504 239.360947,145.829178 238.180069,147.796204 
	C233.576385,155.464630 236.311920,164.485992 244.244446,169.011383 
	C250.774490,172.736725 261.192810,170.217163 264.174561,162.148804 
	C264.174561,162.148804 264.085938,162.104797 264.576172,161.957672 
z"/>
<path fill="#DFE4EB" opacity="1.000000" stroke="none" 
	d="
M334.838745,207.484360 
	C333.178772,208.242188 331.306458,208.944595 329.435760,208.940277 
	C307.373993,208.889374 285.312531,208.728531 263.250824,208.620209 
	C262.433594,208.616196 261.615204,208.852905 260.422302,208.981079 
	C260.036469,208.521790 260.025665,208.058838 260.029266,207.248749 
	C284.904846,206.967926 309.765991,207.034271 334.838745,207.484360 
z"/>
<path fill="#F3EDF7" opacity="1.000000" stroke="none" 
	d="
M254.994217,252.727325 
	C254.245331,252.792786 253.496445,252.858231 252.218811,252.733566 
	C251.118057,252.721466 250.546066,252.899475 249.974075,253.077484 
	C246.936035,251.801636 243.897980,250.525787 240.714172,249.024933 
	C240.712814,248.378586 240.857208,247.957260 241.610901,247.121063 
	C245.861206,250.203430 250.315308,250.447723 254.980133,250.247009 
	C254.992142,251.309906 254.993179,252.018616 254.994217,252.727325 
z"/>
<path fill="#DFE4EB" opacity="1.000000" stroke="none" 
	d="
M241.438339,206.982910 
	C242.071609,207.525650 242.243118,208.084824 242.414627,208.643982 
	C236.019211,208.415604 229.623795,208.187210 223.110657,207.583801 
	C228.987473,207.138962 234.982025,207.069153 241.438339,206.982910 
z"/>
<path fill="#DFE4EB" opacity="1.000000" stroke="none" 
	d="
M266.016479,268.075348 
	C264.511078,267.937286 263.005676,267.799225 261.262756,267.453461 
	C263.788574,265.561676 266.551941,263.877625 269.607422,262.533142 
	C269.626923,264.012360 269.354340,265.151978 268.893433,266.524689 
	C267.808868,267.196960 266.912689,267.636139 266.016479,268.075348 
z"/>
<path fill="#DFE4EB" opacity="1.000000" stroke="none" 
	d="
M256.569641,268.164642 
	C253.977600,271.440399 250.600983,270.227203 247.100922,268.636475 
	C250.025345,268.210083 253.071823,268.142883 256.569641,268.164642 
z"/>
<path fill="#F2E7F9" opacity="1.000000" stroke="none" 
	d="
M269.081757,266.291626 
	C269.354340,265.151978 269.626923,264.012360 269.956482,262.521362 
	C270.795013,261.482849 271.576569,260.795715 272.651855,259.992676 
	C272.976196,260.690277 273.006775,261.503723 272.933594,262.948792 
	C272.708954,263.696808 272.588104,263.813263 272.228210,263.994568 
	C271.989105,264.059448 271.523773,264.229584 271.473694,264.484131 
	C270.946777,265.235138 270.469971,265.731598 269.764465,266.231781 
	C269.535767,266.235535 269.081757,266.291626 269.081757,266.291626 
z"/>
<path fill="#F3EDF7" opacity="1.000000" stroke="none" 
	d="
M260.673737,246.298553 
	C260.778931,247.168381 260.884094,248.038208 260.992310,249.347473 
	C260.538300,250.141006 260.081268,250.495102 259.024750,250.888489 
	C257.952515,250.300537 257.479767,249.673325 257.240784,248.817825 
	C258.540985,247.825897 259.607361,247.062225 260.673737,246.298553 
z"/>
<path fill="#E4EEF3" opacity="1.000000" stroke="none" 
	d="
M257.006989,249.046097 
	C257.479767,249.673325 257.952515,250.300537 258.744568,250.979431 
	C257.932312,251.654007 256.800812,252.276886 255.331757,252.813538 
	C254.993179,252.018616 254.992142,251.309906 255.179092,250.040955 
	C255.913712,249.335831 256.460358,249.190964 257.006989,249.046097 
z"/>
<path fill="#DFE4EB" opacity="1.000000" stroke="none" 
	d="
M244.857056,188.666138 
	C244.291992,189.330551 243.581268,189.674118 242.554321,190.015854 
	C243.062546,189.457779 243.886978,188.901535 244.857056,188.666138 
z"/>
<path fill="#DFE4EB" opacity="1.000000" stroke="none" 
	d="
M259.842590,189.672714 
	C258.955994,189.834686 258.153992,189.654388 257.169556,189.219543 
	C257.967102,189.086823 258.947144,189.208633 259.842590,189.672714 
z"/>
<path fill="#DFE4EB" opacity="1.000000" stroke="none" 
	d="
M148.098389,304.381927 
	C149.406845,304.125214 150.895813,304.218567 152.675140,304.538300 
	C151.403305,304.753784 149.841095,304.742889 148.098389,304.381927 
z"/>
<path fill="#E4EEF3" opacity="1.000000" stroke="none" 
	d="
M250.049728,253.381866 
	C250.546066,252.899475 251.118057,252.721466 251.842667,252.767776 
	C251.371979,253.223480 250.748672,253.454880 250.049728,253.381866 
z"/>
<path fill="#DFE4EB" opacity="1.000000" stroke="none" 
	d="
M159.333862,304.848022 
	C159.562607,304.638794 160.115036,304.517639 160.822784,304.582642 
	C160.537918,304.824554 160.097733,304.880341 159.333862,304.848022 
z"/>
<path fill="#DFE4EB" opacity="1.000000" stroke="none" 
	d="
M189.746124,207.135834 
	C189.985703,207.217987 189.647919,207.554459 189.647919,207.554459 
	C189.647919,207.554459 189.200638,207.476944 189.110962,207.338074 
	C189.183044,207.150696 189.344788,207.102203 189.746124,207.135834 
z"/>
<path fill="#DFE4EB" opacity="1.000000" stroke="none" 
	d="
M242.135162,192.245880 
	C242.356049,192.165329 242.512848,192.320282 242.616165,192.505157 
	C242.648315,192.562683 242.535645,192.701126 242.349823,192.896393 
	C242.157043,192.824493 242.103760,192.658722 242.135162,192.245880 
z"/>
<path fill="#DFE4EB" opacity="1.000000" stroke="none" 
	d="
M170.749161,207.126801 
	C170.992935,207.208389 170.652298,207.548141 170.652298,207.548141 
	C170.652298,207.548141 170.200302,207.476868 170.107742,207.338531 
	C170.178589,207.148529 170.341980,207.096863 170.749161,207.126801 
z"/>
<path fill="#DFE4EB" opacity="1.000000" stroke="none" 
	d="
M173.744720,207.124573 
	C173.987534,207.195831 173.659576,207.544937 173.659576,207.544937 
	C173.659576,207.544937 173.208542,207.491577 173.115936,207.354797 
	C173.182861,207.163132 173.342377,207.108231 173.744720,207.124573 
z"/>
<path fill="#DFE4EB" opacity="1.000000" stroke="none" 
	d="
M339.023773,208.699463 
	C338.792725,208.920517 338.517975,208.790787 338.151672,208.376678 
	C338.320343,208.276077 338.626984,208.361542 339.023773,208.699463 
z"/>
<path fill="#DFE4EB" opacity="1.000000" stroke="none" 
	d="
M239.975677,266.722778 
	C239.734879,266.951691 239.473389,266.826935 239.134888,266.419739 
	C239.309448,266.314026 239.608490,266.391327 239.975677,266.722778 
z"/>
<path fill="#E4EEF3" opacity="1.000000" stroke="none" 
	d="
M238.037354,247.292953 
	C238.264862,247.090271 238.572021,247.167725 239.291397,247.488876 
	C239.174728,247.679413 238.645874,247.626251 238.037354,247.292953 
z"/>
<path fill="#8D10EA" opacity="1.000000" stroke="none" 
	d="
M159.654877,369.146362 
	C156.750885,359.185608 153.720535,349.258972 151.015900,339.244385 
	C150.145859,336.022827 148.899887,334.560181 145.314072,334.795715 
	C140.069580,335.140198 134.785660,334.884338 128.851227,334.884338 
	C128.851227,331.263733 128.851227,328.026398 129.444366,324.356873 
	C147.688156,323.973785 165.338791,324.022888 182.986267,324.303467 
	C182.983093,324.534943 182.986572,324.998779 182.558197,324.995605 
	C180.415558,325.003479 178.701294,325.014496 176.519989,325.015320 
	C169.756805,325.005127 163.460663,325.005127 157.164536,325.005127 
	C156.998108,325.769409 156.831680,326.533661 156.665253,327.297943 
	C158.932266,328.531342 161.202621,329.758698 163.464523,331.001404 
	C164.264481,331.440918 165.187286,331.776733 165.805328,332.404663 
	C167.554398,334.181732 169.059067,336.208160 170.869064,337.914642 
	C175.137939,341.939362 179.649750,345.711426 183.835175,349.818176 
	C188.037766,353.941772 192.087112,358.239075 195.967880,362.666901 
	C198.532089,365.592560 200.680222,368.882935 202.545166,372.021057 
	C188.338440,372.094482 174.601181,372.156830 160.863937,372.219208 
	C160.863937,372.219208 160.811874,372.177460 160.868958,371.785034 
	C160.502319,370.643890 160.078598,369.895111 159.654877,369.146362 
z"/>
<path fill="#6961F3" opacity="1.000000" stroke="none" 
	d="
M347.205078,348.423981 
	C346.021118,353.127899 344.837158,357.831848 343.345703,362.807373 
	C343.038239,363.079010 342.910950,363.025543 342.896729,362.656677 
	C341.490112,359.341949 340.759827,355.732880 338.589478,353.566193 
	C329.687958,344.679657 320.332245,336.248871 311.201874,327.589050 
	C310.553741,326.974335 310.375183,325.864563 310.351868,324.977478 
	C311.471527,324.976349 312.217560,324.982697 313.426086,324.991638 
	C316.045135,324.996063 318.355408,324.499115 320.325623,325.106079 
	C324.151520,326.284637 329.588043,327.088348 331.108276,329.841461 
	C333.884888,334.869690 337.772552,336.521057 341.458252,337.306610 
	C343.664581,341.574768 345.434814,344.999359 347.205078,348.423981 
z"/>
<path fill="#6768F2" opacity="1.000000" stroke="none" 
	d="
M347.451660,348.114502 
	C345.434814,344.999359 343.664581,341.574768 341.458252,337.306610 
	C337.772552,336.521057 333.884888,334.869690 331.108276,329.841461 
	C329.588043,327.088348 324.151520,326.284637 320.325623,325.106079 
	C318.355408,324.499115 316.045135,324.996063 313.422974,324.791077 
	C312.957458,324.587952 312.917603,324.188599 313.389374,324.144653 
	C322.874664,323.926483 331.888184,323.752258 340.901703,323.578033 
	C343.007385,323.538055 345.113037,323.498077 348.022339,323.679352 
	C355.141022,323.900604 361.456085,323.900604 367.771149,323.900604 
	C363.809235,325.064178 359.845917,324.952850 355.895996,325.133423 
	C354.739960,325.186279 353.621887,326.069305 352.486420,326.571838 
	C353.185150,327.777740 353.598969,329.592316 354.635132,330.077362 
	C357.966522,331.636719 361.527679,332.705231 364.986206,334.135162 
	C364.972229,334.307251 364.947662,334.651642 364.947662,334.651642 
	C364.785919,334.676880 364.625061,334.714355 364.462341,334.725586 
	C360.113861,335.025848 354.654572,333.850372 351.738739,336.048798 
	C348.996338,338.116486 348.937683,343.743805 347.451660,348.114502 
z"/>
<path fill="#8C88F8" opacity="1.000000" stroke="none" 
	d="
M340.462891,323.436157 
	C331.888184,323.752258 322.874664,323.926483 312.929352,324.116150 
	C268.994843,324.111755 225.992142,324.091858 182.989441,324.071960 
	C165.338791,324.022888 147.688156,323.973785 129.584091,323.904968 
	C130.383804,323.631409 131.636887,323.155670 132.890045,323.155487 
	C201.603439,323.145844 270.316833,323.175934 339.030212,323.206024 
	C339.361511,323.206177 339.692780,323.263611 340.462891,323.436157 
z"/>
<path fill="#793FCF" opacity="1.000000" stroke="none" 
	d="
M161.101334,372.590515 
	C174.601181,372.156830 188.338440,372.094482 203.011322,372.030945 
	C209.635529,372.019165 215.324097,372.008545 221.480408,372.007690 
	C229.635284,372.008148 237.322372,371.998810 245.477005,371.998108 
	C254.963440,371.996613 263.982361,371.986450 273.469727,371.984589 
	C281.290070,371.988342 288.641998,371.983765 296.463013,371.987427 
	C303.619690,371.992950 310.307281,371.990265 317.455750,371.994629 
	C321.606232,372.001129 325.295807,372.000580 329.444458,372.005127 
	C332.339203,372.005798 334.831970,372.304688 337.185089,371.861755 
	C338.269989,371.657501 339.081757,370.002258 340.144592,368.726257 
	C340.839172,367.626251 341.406494,366.804901 342.036163,366.033325 
	C342.098511,366.083130 342.221466,366.184753 342.221466,366.184753 
	C341.144562,373.155518 341.144562,373.153625 334.353058,373.158234 
	C278.496857,373.196014 222.640671,373.237518 166.784485,373.259613 
	C164.969269,373.260315 163.153976,373.065521 161.101334,372.590515 
z"/>
<path fill="#8C88F8" opacity="1.000000" stroke="none" 
	d="
M365.000214,333.963074 
	C361.527679,332.705231 357.966522,331.636719 354.635132,330.077362 
	C353.598969,329.592316 353.185150,327.777740 352.486420,326.571838 
	C353.621887,326.069305 354.739960,325.186279 355.895996,325.133423 
	C359.845917,324.952850 363.809235,325.064178 367.771149,323.900604 
	C361.456085,323.900604 355.141022,323.900604 348.470093,323.742065 
	C355.841949,323.508392 363.569702,323.433258 371.634827,324.010254 
	C371.876038,333.975311 371.876038,333.975311 365.000214,333.963074 
z"/>
<path fill="#5E86F6" opacity="1.000000" stroke="none" 
	d="
M364.986206,334.135162 
	C371.876038,333.975311 371.876038,333.975311 372.007111,324.182129 
	C372.384613,326.978180 373.209961,330.328278 372.728088,333.478424 
	C372.608643,334.259338 368.252655,334.392181 365.395874,334.737305 
	C364.947662,334.651642 364.972229,334.307251 364.986206,334.135162 
z"/>
<path fill="#793FCF" opacity="1.000000" stroke="none" 
	d="
M159.683441,369.479370 
	C160.078598,369.895111 160.502319,370.643890 160.858002,371.753510 
	C160.430634,371.347046 160.071320,370.579742 159.683441,369.479370 
z"/>
<path fill="#793FCF" opacity="1.000000" stroke="none" 
	d="
M343.105621,363.094086 
	C343.003876,363.970795 342.834747,364.832458 342.443542,365.939423 
	C342.221466,366.184753 342.098511,366.083130 342.052734,365.706757 
	C342.308289,364.562103 342.609619,363.793823 342.910950,363.025543 
	C342.910950,363.025543 343.038239,363.079010 343.105621,363.094086 
z"/>
<path fill="#8129EE" opacity="1.000000" stroke="none" 
	d="
M160.172119,263.915375 
	C162.610748,265.457886 165.049362,267.000397 167.881531,268.988159 
	C168.593475,269.537872 168.911911,269.642334 169.230331,269.746826 
	C169.230331,269.746826 169.253845,269.643188 169.240799,270.024048 
	C169.452362,270.825958 169.572220,271.384247 169.917221,271.647552 
	C175.441071,275.863770 181.563171,279.485657 186.365891,284.399323 
	C190.472092,288.600342 192.731049,294.551575 199.192902,296.375458 
	C200.068237,296.622498 200.414337,298.744537 200.536224,300.002655 
	C185.596802,300.017120 171.126038,299.959076 156.656982,300.089905 
	C153.407730,300.119263 151.829742,299.441315 151.904938,295.715179 
	C152.119659,285.074768 152.025070,274.427002 151.952652,263.782806 
	C151.936829,261.458130 152.348862,259.816132 155.109024,259.915741 
	C155.109024,259.915741 155.036972,259.961487 155.139618,260.173737 
	C155.552689,260.556122 155.863129,260.726257 156.173584,260.896393 
	C156.173584,260.896393 156.096130,260.844391 156.118073,261.175720 
	C156.858459,261.889709 157.576920,262.272430 158.295380,262.655121 
	C158.295380,262.655121 158.269348,262.752045 158.322662,263.042145 
	C158.974701,263.526611 159.573410,263.720978 160.172119,263.915375 
z"/>
<path fill="#7644F0" opacity="1.000000" stroke="none" 
	d="
M194.892944,269.694336 
	C198.204865,267.584717 201.884903,265.880798 204.751266,263.280090 
	C210.524857,258.041595 216.343002,255.236282 223.856812,260.893738 
	C224.635208,262.928619 224.806641,264.660797 225.757904,265.617706 
	C235.797195,275.716187 245.996613,285.655457 256.036224,295.753632 
	C257.069946,296.793396 257.354431,298.578064 257.519318,300.018677 
	C249.033493,300.016632 241.014908,300.013031 232.988297,299.638824 
	C231.320129,297.889557 229.755310,296.369141 227.973755,295.171082 
	C226.093826,293.906830 223.623993,293.331512 222.084641,291.785400 
	C217.938965,287.621460 214.139648,283.111450 210.229980,278.714661 
	C209.141434,277.490479 207.767075,276.336273 207.178955,274.884583 
	C205.135941,269.841675 201.164490,270.408295 197.032059,270.884674 
	C196.373505,270.960602 195.608643,270.114288 194.892944,269.694336 
z"/>
<path fill="#7B37F0" opacity="1.000000" stroke="none" 
	d="
M194.515045,269.772522 
	C195.608643,270.114288 196.373505,270.960602 197.032059,270.884674 
	C201.164490,270.408295 205.135941,269.841675 207.178955,274.884583 
	C207.767075,276.336273 209.141434,277.490479 210.229980,278.714661 
	C214.139648,283.111450 217.938965,287.621460 222.084641,291.785400 
	C223.623993,293.331512 226.093826,293.906830 227.973755,295.171082 
	C229.755310,296.369141 231.320129,297.889557 232.520050,299.640076 
	C221.708405,300.007446 211.356949,300.002930 201.005493,299.998413 
	C200.414337,298.744537 200.068237,296.622498 199.192902,296.375458 
	C192.731049,294.551575 190.472092,288.600342 186.365891,284.399323 
	C181.563171,279.485657 175.441071,275.863770 169.917221,271.647552 
	C169.572220,271.384247 169.452362,270.825958 169.293884,270.021790 
	C175.626984,270.916016 181.613953,274.448364 188.342010,272.011932 
	C190.280411,271.309998 192.205795,270.572113 194.515045,269.772522 
z"/>
<path fill="#7052F0" opacity="1.000000" stroke="none" 
	d="
M257.986572,300.017090 
	C257.354431,298.578064 257.069946,296.793396 256.036224,295.753632 
	C245.996613,285.655457 235.797195,275.716187 225.757904,265.617706 
	C224.806641,264.660797 224.635208,262.928619 224.089066,261.182465 
	C225.343994,261.518311 226.769333,262.042969 227.854065,262.967316 
	C236.007935,269.915588 245.351532,272.875671 256.485870,272.051239 
	C258.096832,274.925934 258.696075,277.891083 260.463806,279.737457 
	C265.644653,285.148834 271.790527,289.694977 276.582794,295.399597 
	C279.911926,299.362488 283.373505,300.554077 287.715302,300.297241 
	C278.272705,300.705048 269.143127,300.836395 259.830414,300.737946 
	C259.093750,300.344482 258.540161,300.180786 257.986572,300.017090 
z"/>
<path fill="#6961F3" opacity="1.000000" stroke="none" 
	d="
M288.028290,300.020782 
	C283.373505,300.554077 279.911926,299.362488 276.582794,295.399597 
	C271.790527,289.694977 265.644653,285.148834 260.463806,279.737457 
	C258.696075,277.891083 258.096832,274.925934 256.942078,272.052155 
	C259.786652,270.607056 262.652771,269.581757 265.767700,268.315918 
	C266.912689,267.636139 267.808868,267.196960 268.893433,266.524689 
	C269.081757,266.291626 269.535767,266.235535 269.817139,266.571106 
	C273.034668,275.086365 280.011932,279.991882 285.526642,286.105499 
	C289.549408,290.565155 293.191071,295.368530 296.553009,300.021362 
	C293.411682,300.022949 290.720001,300.021851 288.028290,300.020782 
z"/>
<path fill="#793FCF" opacity="1.000000" stroke="none" 
	d="
M257.519318,300.018646 
	C258.540161,300.180786 259.093750,300.344482 259.360291,300.745544 
	C247.319504,300.995239 235.565475,300.968109 223.812286,301.054382 
	C221.555710,301.070923 219.302399,301.533112 217.047592,301.789734 
	C195.123795,301.789734 173.199997,301.789734 150.946259,301.789734 
	C150.946259,287.096375 150.946259,272.717102 150.946259,257.649933 
	C152.444138,258.296082 153.568619,258.781158 154.901062,259.591003 
	C152.348862,259.816132 151.936829,261.458130 151.952652,263.782806 
	C152.025070,274.427002 152.119659,285.074768 151.904938,295.715179 
	C151.829742,299.441315 153.407730,300.119263 156.656982,300.089905 
	C171.126038,299.959076 185.596802,300.017120 200.536224,300.002655 
	C211.356949,300.002930 221.708405,300.007446 232.528107,300.010712 
	C241.014908,300.013031 249.033493,300.016632 257.519318,300.018646 
z"/>
<path fill="#776AD4" opacity="1.000000" stroke="none" 
	d="
M217.505646,301.869202 
	C219.302399,301.533112 221.555710,301.070923 223.812286,301.054382 
	C235.565475,300.968109 247.319504,300.995239 259.543396,300.975311 
	C269.143127,300.836395 278.272705,300.705048 287.715302,300.297241 
	C290.720001,300.021851 293.411682,300.022949 297.013123,300.022980 
	C305.597473,300.331512 313.272095,300.641083 321.416565,300.964874 
	C326.907135,300.973969 331.927887,300.968872 337.417816,300.980103 
	C342.182465,301.012329 346.477966,301.028229 350.773438,301.044128 
	C350.346985,301.330597 349.920563,301.617035 349.221069,301.972870 
	C307.452850,302.025757 265.957672,302.009857 224.462509,301.990967 
	C222.296249,301.989960 220.129974,301.963348 217.505646,301.869202 
z"/>
<path fill="#793FCF" opacity="1.000000" stroke="none" 
	d="
M158.211700,262.367737 
	C157.576920,262.272430 156.858459,261.889709 156.153839,261.145782 
	C156.821106,261.216492 157.474564,261.648438 158.211700,262.367737 
z"/>
<path fill="#793FCF" opacity="1.000000" stroke="none" 
	d="
M160.007751,263.650940 
	C159.573410,263.720978 158.974701,263.526611 158.281952,263.012787 
	C158.739761,262.924377 159.291580,263.155426 160.007751,263.650940 
z"/>
<path fill="#7B37F0" opacity="1.000000" stroke="none" 
	d="
M169.123016,269.501221 
	C168.911911,269.642334 168.593475,269.537872 168.134430,269.215149 
	C168.334427,269.083160 168.675049,269.169403 169.123016,269.501221 
z"/>
<path fill="#793FCF" opacity="1.000000" stroke="none" 
	d="
M156.097961,260.626495 
	C155.863129,260.726257 155.552689,260.556122 155.142868,260.131165 
	C155.369766,260.036438 155.696045,260.196503 156.097961,260.626495 
z"/>
<path fill="#7644F0" opacity="1.000000" stroke="none" 
	d="
M201.935593,238.845367 
	C199.505173,240.524582 196.981415,242.084702 194.660202,243.903336 
	C183.668503,252.515274 181.324478,252.379013 170.356216,244.031708 
	C166.543732,241.130264 161.929153,239.282730 157.226532,236.479752 
	C151.069916,232.735519 150.943054,232.131760 153.311279,225.195374 
	C153.869858,223.559296 153.769455,221.698212 153.972214,219.940643 
	C153.972214,219.940643 153.999527,219.995377 154.313660,219.949158 
	C155.007095,219.180664 155.386383,218.458374 155.765671,217.736099 
	C155.765671,217.736099 155.856705,217.801804 156.083191,217.759155 
	C156.495193,217.406097 156.680725,217.095718 156.866257,216.785324 
	C156.866257,216.785324 156.785065,216.844482 157.133682,216.851639 
	C159.005997,215.511673 160.529709,214.164551 162.053406,212.817413 
	C162.053406,212.817413 162.258881,212.716064 162.738464,212.827728 
	C164.481033,212.617920 165.744034,212.296432 167.460861,211.970428 
	C170.948868,211.970154 173.983017,211.974380 177.013840,212.366165 
	C180.523209,216.931564 183.824615,221.312958 187.602921,225.234924 
	C192.169434,229.975052 197.139923,234.325989 201.935593,238.845367 
z"/>
<path fill="#6768F2" opacity="1.000000" stroke="none" 
	d="
M257.240784,248.817825 
	C256.460358,249.190964 255.913712,249.335831 255.168121,249.686768 
	C250.315308,250.447723 245.861206,250.203430 241.918762,246.528137 
	C233.670288,238.473465 223.804642,235.852005 212.833023,235.603668 
	C215.769547,235.133102 218.840942,234.949310 222.464340,234.732483 
	C219.681656,231.766464 217.266418,229.152710 214.804123,226.584076 
	C213.554016,225.279999 211.996292,224.215714 210.965652,222.766998 
	C208.245987,218.944138 201.422989,218.531906 202.454132,211.993073 
	C205.935287,211.640656 208.970245,211.291458 212.005219,210.942230 
	C222.352280,210.909180 232.699356,210.876114 243.519638,211.161469 
	C243.994629,211.653076 243.996399,211.826233 243.529999,211.998093 
	C237.205032,211.996796 231.348236,211.996796 225.491425,211.996796 
	C225.309601,212.494888 225.127792,212.992966 224.945969,213.491058 
	C236.313065,223.797821 244.658920,237.137054 256.803375,245.088684 
	C260.663879,243.475479 263.510193,242.286102 266.356476,241.096710 
	C264.576752,242.659500 262.797028,244.222275 260.845520,246.041809 
	C259.607361,247.062225 258.540985,247.825897 257.240784,248.817825 
z"/>
<path fill="#5E86F6" opacity="1.000000" stroke="none" 
	d="
M243.998169,211.999390 
	C243.996399,211.826233 243.994629,211.653076 243.983749,211.220245 
	C244.391327,207.597824 244.938858,204.244537 245.183777,200.869324 
	C245.384430,198.104263 245.224686,195.313049 245.224686,192.601807 
	C249.257477,192.601807 252.801239,192.601807 256.895935,192.601807 
	C256.895935,197.846237 256.895935,202.956680 256.952240,208.531967 
	C258.447662,209.606293 259.876343,210.713547 261.327576,210.743912 
	C270.236206,210.930252 279.149963,210.873016 288.529114,211.200134 
	C288.996185,211.503403 288.990234,211.991180 288.546539,211.991013 
	C285.734131,211.995255 283.365387,211.999680 280.529816,212.001328 
	C275.184753,211.998566 270.306549,211.998566 263.817657,211.998566 
	C265.823212,215.017929 266.650787,217.778137 268.087189,218.143280 
	C272.451111,219.252563 273.856873,223.044052 276.485779,225.741425 
	C279.270416,228.598602 281.863312,232.154968 285.306091,233.713287 
	C288.700836,235.249847 293.054718,234.667389 296.982544,235.372131 
	C296.933685,236.205048 296.890106,236.680405 296.846497,237.155777 
	C288.449585,235.295807 280.118195,235.099777 271.357239,237.856842 
	C268.927490,236.726974 266.376465,236.387497 265.293854,234.945557 
	C259.001862,226.565186 252.512573,218.599670 241.832123,215.764206 
	C242.433411,214.719116 243.215790,213.359253 243.998169,211.999390 
z"/>
<path fill="#6E55F2" opacity="1.000000" stroke="none" 
	d="
M202.007935,211.996262 
	C201.422989,218.531906 208.245987,218.944138 210.965652,222.766998 
	C211.996292,224.215714 213.554016,225.279999 214.804123,226.584076 
	C217.266418,229.152710 219.681656,231.766464 222.464340,234.732483 
	C218.840942,234.949310 215.769547,235.133102 212.390930,235.560303 
	C208.936279,236.748825 205.788834,237.693939 202.288483,238.742203 
	C197.139923,234.325989 192.169434,229.975052 187.602921,225.234924 
	C183.824615,221.312958 180.523209,216.931564 177.480499,212.363464 
	C185.969635,211.980881 193.988785,211.988571 202.007935,211.996262 
z"/>
<path fill="#776AD4" opacity="1.000000" stroke="none" 
	d="
M202.454132,211.993073 
	C193.988785,211.988571 185.969635,211.980881 177.483826,211.975891 
	C173.983017,211.974380 170.948868,211.970154 167.454346,211.755371 
	C166.993988,211.544830 166.980957,211.114120 166.980957,211.114120 
	C167.154099,211.031128 167.327225,210.948151 168.003937,210.809448 
	C168.507538,210.753738 168.950119,210.603271 168.950119,210.603271 
	C170.694595,210.628586 172.439072,210.653900 174.929718,210.727081 
	C176.102142,210.712112 176.528412,210.649261 176.954666,210.586411 
	C188.328232,210.659256 199.701813,210.732101 211.540298,210.873596 
	C208.970245,211.291458 205.935287,211.640656 202.454132,211.993073 
z"/>
<path fill="#793FCF" opacity="1.000000" stroke="none" 
	d="
M153.686401,220.167496 
	C153.769455,221.698212 153.869858,223.559296 153.311279,225.195374 
	C150.943054,232.131760 151.069916,232.735519 156.851929,236.332489 
	C155.133896,236.347916 153.336029,236.036530 151.244705,235.674301 
	C150.430756,230.370911 150.505188,225.211655 153.686401,220.167496 
z"/>
<path fill="#793FCF" opacity="1.000000" stroke="none" 
	d="
M161.693939,212.853180 
	C160.529709,214.164551 159.005997,215.511673 157.114227,216.805328 
	C158.275604,215.464218 159.805038,214.176590 161.693939,212.853180 
z"/>
<path fill="#793FCF" opacity="1.000000" stroke="none" 
	d="
M166.620865,211.100815 
	C166.980957,211.114120 166.993988,211.544830 167.000504,211.759888 
	C165.744034,212.296432 164.481033,212.617920 162.813385,212.914413 
	C163.692719,212.288773 164.976746,211.688141 166.620865,211.100815 
z"/>
<path fill="#793FCF" opacity="1.000000" stroke="none" 
	d="
M155.478775,217.839752 
	C155.386383,218.458374 155.007095,219.180664 154.284332,219.940521 
	C154.357849,219.299881 154.774872,218.621643 155.478775,217.839752 
z"/>
<path fill="#B6D8FA" opacity="1.000000" stroke="none" 
	d="
M176.789886,210.445801 
	C176.528412,210.649261 176.102142,210.712112 175.363678,210.681641 
	C175.576004,210.493958 176.100540,210.399567 176.789886,210.445801 
z"/>
<path fill="#B6D8FA" opacity="1.000000" stroke="none" 
	d="
M168.849731,210.503189 
	C168.950119,210.603271 168.507538,210.753738 168.277527,210.719528 
	C168.209152,210.397690 168.443085,210.303619 168.849731,210.503189 
z"/>
<path fill="#793FCF" opacity="1.000000" stroke="none" 
	d="
M156.574554,216.823273 
	C156.680725,217.095718 156.495193,217.406097 156.037537,217.791809 
	C155.937881,217.531815 156.110352,217.196518 156.574554,216.823273 
z"/>
<path fill="#6176F5" opacity="1.000000" stroke="none" 
	d="
M243.529999,211.998093 
	C243.215790,213.359253 242.433411,214.719116 241.832123,215.764206 
	C252.512573,218.599670 259.001862,226.565186 265.293854,234.945557 
	C266.376465,236.387497 268.927490,236.726974 270.959351,237.885986 
	C269.696747,239.037567 268.274994,239.878860 266.604858,240.908447 
	C263.510193,242.286102 260.663879,243.475479 256.803375,245.088684 
	C244.658920,237.137054 236.313065,223.797821 224.945969,213.491058 
	C225.127792,212.992966 225.309601,212.494888 225.491425,211.996796 
	C231.348236,211.996796 237.205032,211.996796 243.529999,211.998093 
z"/>
<path fill="#5499F7" opacity="1.000000" stroke="none" 
	d="
M296.877045,237.141205 
	C296.890106,236.680405 296.933685,236.205048 296.992920,235.001373 
	C298.124329,228.175186 296.887024,227.348801 290.266693,229.051865 
	C289.865997,227.114136 289.949097,223.769409 288.975586,223.426788 
	C283.363403,221.451553 281.789337,217.098907 280.996674,212.004089 
	C283.365387,211.999680 285.734131,211.995255 288.899780,212.033875 
	C292.325256,214.871292 294.782440,217.855148 297.618713,220.419815 
	C303.174500,225.443604 309.063354,230.100906 314.582123,235.163086 
	C318.877533,239.103119 321.682281,244.625046 327.305878,247.174805 
	C322.193115,250.997742 317.336853,251.167252 312.213776,247.501343 
	C309.782440,245.761551 307.542267,243.754562 305.034943,241.210938 
	C303.857117,240.086823 302.859833,239.620392 301.862579,239.153946 
	C301.862579,239.153946 301.916107,239.072205 301.745789,238.822433 
	C300.686462,238.392334 299.797516,238.211990 298.908539,238.031662 
	C298.740692,238.011429 298.572845,237.991180 298.044250,237.695801 
	C297.463043,237.220276 297.205170,237.099716 296.909973,237.059006 
	C296.909973,237.059006 296.907562,237.126633 296.877045,237.141205 
z"/>
<path fill="#50A5F7" opacity="1.000000" stroke="none" 
	d="
M327.500397,247.102417 
	C321.682281,244.625046 318.877533,239.103119 314.582123,235.163086 
	C309.063354,230.100906 303.174500,225.443604 297.618713,220.419815 
	C294.782440,217.855148 292.325256,214.871292 289.343506,212.034042 
	C288.990234,211.991180 288.996185,211.503403 288.994202,211.259537 
	C303.673248,210.980789 318.354279,210.945908 333.192505,211.263641 
	C329.233795,211.748108 325.117859,211.879974 320.535583,212.008575 
	C315.550140,212.005325 311.030975,212.005325 305.375061,212.005325 
	C315.255127,222.375046 324.128174,231.687820 333.032684,241.300888 
	C333.107300,241.797760 333.150452,241.994370 333.193604,242.190994 
	C333.193604,242.190994 333.101227,242.170593 332.868347,242.218674 
	C332.441345,242.544876 332.247223,242.822998 332.053070,243.101135 
	C332.053070,243.101120 332.013611,243.031677 331.811249,243.151703 
	C331.421478,243.565628 331.234039,243.859512 331.046631,244.153381 
	C330.964508,244.472092 330.780884,244.713593 329.971191,244.980225 
	C328.968567,245.642563 328.490479,246.202560 328.012390,246.762558 
	C328.012390,246.762558 327.694916,247.030045 327.500397,247.102417 
z"/>
<path fill="#4AACFB" opacity="1.000000" stroke="none" 
	d="
M333.001221,241.000610 
	C324.128174,231.687820 315.255127,222.375046 305.375061,212.005325 
	C311.030975,212.005325 315.550140,212.005325 320.592957,212.349121 
	C323.474884,215.679520 325.759583,218.729599 328.242249,221.608978 
	C328.878510,222.346939 330.106110,222.822174 331.119873,222.946609 
	C336.820038,223.646149 338.252289,225.217499 339.073151,231.299210 
	C339.297302,232.960022 340.314087,234.513824 340.967133,236.116745 
	C341.368195,235.997772 341.769287,235.878799 342.170380,235.759827 
	C342.743469,234.264328 343.316559,232.768814 344.324097,230.139679 
	C345.563293,232.876587 346.287659,234.476517 347.012054,236.076431 
	C343.274902,237.698822 339.537720,239.321213 335.101440,240.976105 
	C333.935303,241.005936 333.468262,241.003265 333.001221,241.000610 
z"/>
<path fill="#46B8FB" opacity="1.000000" stroke="none" 
	d="
M347.342926,236.082672 
	C346.287659,234.476517 345.563293,232.876587 344.324097,230.139679 
	C343.316559,232.768814 342.743469,234.264328 342.170380,235.759827 
	C341.769287,235.878799 341.368195,235.997772 340.967133,236.116745 
	C340.314087,234.513824 339.297302,232.960022 339.073151,231.299210 
	C338.252289,225.217499 336.820038,223.646149 331.119873,222.946609 
	C330.106110,222.822174 328.878510,222.346939 328.242249,221.608978 
	C325.759583,218.729599 323.474884,215.679520 321.059235,212.352386 
	C325.117859,211.879974 329.233795,211.748108 333.652313,211.345947 
	C342.451965,211.534119 348.694672,217.114929 350.690735,226.935013 
	C350.102051,230.183273 349.795990,232.786270 349.489929,235.389267 
	C348.884552,235.622482 348.279175,235.855682 347.342926,236.082672 
z"/>
<path fill="#4AACFB" opacity="1.000000" stroke="none" 
	d="
M349.874207,235.267609 
	C349.795990,232.786270 350.102051,230.183273 350.661926,227.312958 
	C350.696625,229.745743 350.477539,232.445862 349.874207,235.267609 
z"/>
<path fill="#5E86F6" opacity="1.000000" stroke="none" 
	d="
M301.993469,239.444580 
	C302.859833,239.620392 303.857117,240.086823 304.862274,240.930634 
	C303.954895,240.783737 303.039642,240.259476 301.993469,239.444580 
z"/>
<path fill="#5E86F6" opacity="1.000000" stroke="none" 
	d="
M299.134338,238.282669 
	C299.797516,238.211990 300.686462,238.392334 301.757660,238.869812 
	C301.079956,238.955872 300.220032,238.744781 299.134338,238.282669 
z"/>
<path fill="#5499F7" opacity="1.000000" stroke="none" 
	d="
M328.282593,246.698975 
	C328.490479,246.202560 328.968567,245.642563 329.751770,245.057266 
	C329.555542,245.566437 329.054199,246.100906 328.282593,246.698975 
z"/>
<path fill="#5499F7" opacity="1.000000" stroke="none" 
	d="
M333.032684,241.300888 
	C333.468262,241.003265 333.935303,241.005936 334.752991,241.024231 
	C334.657928,241.400299 334.212250,241.760712 333.480103,242.156067 
	C333.150452,241.994370 333.107300,241.797760 333.032684,241.300888 
z"/>
<path fill="#5499F7" opacity="1.000000" stroke="none" 
	d="
M331.289185,244.039291 
	C331.234039,243.859512 331.421478,243.565628 331.850464,243.159149 
	C331.905304,243.339432 331.718506,243.632309 331.289185,244.039291 
z"/>
<path fill="#5E86F6" opacity="1.000000" stroke="none" 
	d="
M296.996582,237.275452 
	C297.205170,237.099716 297.463043,237.220276 297.812805,237.592194 
	C297.609436,237.819702 297.323120,237.729095 296.996582,237.275452 
z"/>
<path fill="#5499F7" opacity="1.000000" stroke="none" 
	d="
M332.318481,243.033875 
	C332.247223,242.822998 332.441345,242.544876 332.877441,242.172241 
	C332.940857,242.374008 332.762360,242.670303 332.318481,243.033875 
z"/>
<path fill="#6176F5" opacity="1.000000" stroke="none" 
	d="
M336.948639,300.963776 
	C331.927887,300.968872 326.907135,300.973969 321.142822,300.695526 
	C316.042480,299.748169 310.845978,300.536072 309.882172,294.096558 
	C309.793091,293.501312 308.689453,293.059113 308.058777,292.543549 
	C304.370087,289.528076 300.476135,286.725922 297.053741,283.433563 
	C293.872375,280.373077 291.728760,275.983887 288.170685,273.622559 
	C282.619415,269.938416 279.740112,265.487518 280.011993,258.918060 
	C284.802734,256.597931 289.145844,257.337341 293.422302,260.434692 
	C297.945251,263.710571 302.703918,266.660919 307.446228,270.168396 
	C306.829590,270.958923 306.126373,271.334564 304.634979,272.131226 
	C310.068665,277.912994 315.226135,283.413910 320.398560,288.900818 
	C325.161194,293.953033 329.276062,299.901093 336.948639,300.963776 
z"/>
<path fill="#5E86F6" opacity="1.000000" stroke="none" 
	d="
M337.417816,300.980103 
	C329.276062,299.901093 325.161194,293.953033 320.398560,288.900818 
	C315.226135,283.413910 310.068665,277.912994 304.634979,272.131226 
	C306.126373,271.334564 306.829590,270.958923 307.741455,270.360199 
	C313.275299,271.438141 318.369812,274.628113 324.742676,272.276215 
	C326.353943,273.900940 327.175781,275.584167 328.448730,276.792053 
	C333.416016,281.505463 338.526123,286.068329 343.583130,290.687164 
	C343.788910,290.361694 343.994659,290.036255 344.200439,289.710815 
	C344.376465,291.661438 344.552490,293.612061 344.728516,295.562714 
	C345.423706,295.761963 346.118927,295.961212 346.814117,296.160461 
	C348.181213,293.453979 349.548340,290.747467 350.915436,288.040985 
	C350.943207,292.071075 350.970947,296.101196 350.886047,300.587708 
	C346.477966,301.028229 342.182465,301.012329 337.417816,300.980103 
z"/>
<path fill="#6768F2" opacity="1.000000" stroke="none" 
	d="
M279.663727,258.951599 
	C279.740112,265.487518 282.619415,269.938416 288.170685,273.622559 
	C291.728760,275.983887 293.872375,280.373077 297.053741,283.433563 
	C300.476135,286.725922 304.370087,289.528076 308.058777,292.543549 
	C308.689453,293.059113 309.793091,293.501312 309.882172,294.096558 
	C310.845978,300.536072 316.042480,299.748169 320.672974,300.681335 
	C313.272095,300.641083 305.597473,300.331512 297.462738,300.020325 
	C293.191071,295.368530 289.549408,290.565155 285.526642,286.105499 
	C280.011932,279.991882 273.034668,275.086365 270.045837,266.567352 
	C270.469971,265.731598 270.946777,265.235138 271.613831,264.580048 
	C272.193359,264.459412 272.414429,264.295532 272.467285,263.929718 
	C272.588104,263.813263 272.708954,263.696808 272.943604,263.355835 
	C275.143433,261.749268 277.229431,260.367218 279.663727,258.951599 
z"/>
<path fill="#5691F8" opacity="1.000000" stroke="none" 
	d="
M350.957275,287.772003 
	C349.548340,290.747467 348.181213,293.453979 346.814117,296.160461 
	C346.118927,295.961212 345.423706,295.761963 344.728516,295.562714 
	C344.552490,293.612061 344.376465,291.661438 344.200439,289.710815 
	C343.994659,290.036255 343.788910,290.361694 343.583130,290.687164 
	C338.526123,286.068329 333.416016,281.505463 328.448730,276.792053 
	C327.175781,275.584167 326.353943,273.900940 325.130737,272.142700 
	C329.015137,270.289642 333.093628,268.729950 337.888153,267.080811 
	C339.852356,268.507843 340.818176,270.480133 342.399109,271.459473 
	C348.239166,275.077271 350.820679,280.290558 350.919159,286.964508 
	C350.945831,287.144012 350.972504,287.323517 350.957275,287.772003 
z"/>
<path fill="#5499F7" opacity="1.000000" stroke="none" 
	d="
M350.983948,286.502960 
	C350.820679,280.290558 348.239166,275.077271 342.399109,271.459473 
	C340.818176,270.480133 339.852356,268.507843 338.217896,266.963562 
	C341.819366,263.857300 345.807159,260.778809 351.048737,256.732422 
	C351.048737,267.601837 351.048737,276.821625 350.983948,286.502960 
z"/>
<path fill="#50A5F7" opacity="1.000000" stroke="none" 
	d="
M264.197296,162.245117 
	C261.192810,170.217163 250.774490,172.736725 244.244446,169.011383 
	C236.311920,164.485992 233.576385,155.464630 238.180069,147.796204 
	C239.360947,145.829178 240.908875,144.082504 242.658615,142.417923 
	C247.032043,146.246933 251.035950,149.891647 255.037079,153.539398 
	C255.628876,154.078918 256.629425,154.568344 256.724518,155.190460 
	C257.390717,159.548874 260.930267,160.727264 264.197296,162.245117 
z"/>
<path fill="#4AACFB" opacity="1.000000" stroke="none" 
	d="
M264.185913,162.196960 
	C260.930267,160.727264 257.390717,159.548874 256.724518,155.190460 
	C256.629425,154.568344 255.628876,154.078918 255.037079,153.539398 
	C251.035950,149.891647 247.032043,146.246933 242.945923,142.239090 
	C242.862793,141.876938 242.907257,141.895187 243.068558,141.878326 
	C243.318756,141.791672 243.491959,141.704636 243.481827,141.655045 
	C243.439835,141.449646 243.342438,141.255600 243.265381,141.057373 
	C245.702637,137.751373 248.139877,134.445343 251.404327,130.017258 
	C256.436615,137.626663 261.365753,144.379059 265.412964,151.624115 
	C266.638367,153.817764 265.422577,157.375092 264.919128,160.789200 
	C264.269135,161.496567 264.126678,161.774628 264.085938,162.104797 
	C264.085938,162.104797 264.174561,162.148804 264.185913,162.196960 
z"/>
<path fill="#50A5F7" opacity="1.000000" stroke="none" 
	d="
M243.119751,141.255341 
	C243.342438,141.255600 243.439835,141.449646 243.481827,141.655045 
	C243.491959,141.704636 243.318756,141.791672 243.060242,141.899582 
	C242.890640,141.937698 242.974121,141.453308 243.119751,141.255341 
z"/>
<path fill="#50A5F7" opacity="1.000000" stroke="none" 
	d="
M264.331055,162.031235 
	C264.126678,161.774628 264.269135,161.496567 264.714355,161.144409 
	C264.802368,161.331375 264.689270,161.644516 264.331055,162.031235 
z"/>
<path fill="#DFE4EB" opacity="1.000000" stroke="none" 
	d="
M272.228210,263.994568 
	C272.414429,264.295532 272.193359,264.459412 271.663940,264.325500 
	C271.523773,264.229584 271.989105,264.059448 272.228210,263.994568 
z"/>
<path fill="#8521EE" opacity="1.000000" stroke="none" 
	d="
M245.009476,371.989471 
	C237.322372,371.998810 229.635284,372.008148 221.434540,371.663025 
	C216.782074,367.152161 212.576263,363.059937 208.519333,358.825104 
	C201.603912,351.606415 194.837402,344.244629 187.890259,337.057098 
	C185.516449,334.601166 182.642624,332.627686 180.276901,330.165131 
	C178.894653,328.726288 178.065201,326.756439 176.987061,325.025513 
	C178.701294,325.014496 180.415558,325.003479 183.027969,324.988403 
	C189.954010,324.999023 195.981888,325.013641 202.012802,325.396423 
	C202.168472,326.401550 202.113052,327.239624 202.505096,327.645233 
	C207.939117,333.267303 213.409164,338.855255 218.920914,344.401367 
	C227.082306,352.613647 235.303360,360.766785 243.436081,369.007202 
	C244.191879,369.772949 244.495758,370.984772 245.009476,371.989471 
z"/>
<path fill="#8917ED" opacity="1.000000" stroke="none" 
	d="
M176.519989,325.015320 
	C178.065201,326.756439 178.894653,328.726288 180.276901,330.165131 
	C182.642624,332.627686 185.516449,334.601166 187.890259,337.057098 
	C194.837402,344.244629 201.603912,351.606415 208.519333,358.825104 
	C212.576263,363.059937 216.782074,367.152161 220.966782,371.653198 
	C215.324097,372.008545 209.635529,372.019165 203.480804,372.019897 
	C200.680222,368.882935 198.532089,365.592560 195.967880,362.666901 
	C192.087112,358.239075 188.037766,353.941772 183.835175,349.818176 
	C179.649750,345.711426 175.137939,341.939362 170.869064,337.914642 
	C169.059067,336.208160 167.554398,334.181732 165.805328,332.404663 
	C165.187286,331.776733 164.264481,331.440918 163.464523,331.001404 
	C161.202621,329.758698 158.932266,328.531342 156.665253,327.297943 
	C156.831680,326.533661 156.998108,325.769409 157.164536,325.005127 
	C163.460663,325.005127 169.756805,325.005127 176.519989,325.015320 
z"/>
<path fill="#793FCF" opacity="1.000000" stroke="none" 
	d="
M202.009766,325.028259 
	C195.981888,325.013641 189.954010,324.999023 183.456360,324.991577 
	C182.986572,324.998779 182.983093,324.534943 182.986267,324.303467 
	C225.992142,324.091858 268.994843,324.111755 312.457581,324.160095 
	C312.917603,324.188599 312.957458,324.587952 312.960541,324.788483 
	C312.217560,324.982697 311.471527,324.976349 309.889771,324.971436 
	C304.701477,324.980103 300.348907,324.987396 295.546509,324.989136 
	C292.392334,324.992035 289.687988,325.000488 286.521484,325.003662 
	C282.038239,325.007904 278.017181,325.017517 273.528015,325.018677 
	C266.705597,325.018463 260.351257,325.026672 253.528595,325.026428 
	C245.708450,325.023376 238.356674,325.028809 230.536011,325.024872 
	C220.714691,325.019745 211.362228,325.024017 202.009766,325.028259 
z"/>
<path fill="#6E55F2" opacity="1.000000" stroke="none" 
	d="
M295.996338,324.994690 
	C300.348907,324.987396 304.701477,324.980103 309.516174,324.978882 
	C310.375183,325.864563 310.553741,326.974335 311.201874,327.589050 
	C320.332245,336.248871 329.687958,344.679657 338.589478,353.566193 
	C340.759827,355.732880 341.490112,359.341949 342.896729,362.656677 
	C342.609619,363.793823 342.308289,364.562103 341.990356,365.656982 
	C341.406494,366.804901 340.839172,367.626251 339.779968,368.716248 
	C338.563141,368.664368 337.673645,368.514435 337.137909,367.997650 
	C329.512360,360.642639 321.909485,353.263611 314.354218,345.836395 
	C309.052856,340.624908 303.750275,335.409119 298.634094,330.018768 
	C297.381195,328.698761 296.856079,326.687927 295.996338,324.994690 
z"/>
<path fill="#802BEE" opacity="1.000000" stroke="none" 
	d="
M202.012802,325.396423 
	C211.362228,325.024017 220.714691,325.019745 230.534988,325.409058 
	C231.468887,327.164734 231.573837,328.862061 232.468765,329.826050 
	C235.147324,332.711273 238.182404,335.261414 240.992264,338.029694 
	C247.413651,344.356110 253.919785,350.605194 260.129486,357.134857 
	C264.637543,361.875214 268.725800,367.014740 273.001251,371.976288 
	C263.982361,371.986450 254.963440,371.996613 245.477005,371.998108 
	C244.495758,370.984772 244.191879,369.772949 243.436081,369.007202 
	C235.303360,360.766785 227.082306,352.613647 218.920914,344.401367 
	C213.409164,338.855255 207.939117,333.267303 202.505096,327.645233 
	C202.113052,327.239624 202.168472,326.401550 202.012802,325.396423 
z"/>
<path fill="#7B37F0" opacity="1.000000" stroke="none" 
	d="
M273.469727,371.984589 
	C268.725800,367.014740 264.637543,361.875214 260.129486,357.134857 
	C253.919785,350.605194 247.413651,344.356110 240.992264,338.029694 
	C238.182404,335.261414 235.147324,332.711273 232.468765,329.826050 
	C231.573837,328.862061 231.468887,327.164734 231.003845,325.418427 
	C238.356674,325.028809 245.708450,325.023376 253.529785,325.424591 
	C254.491837,327.304047 254.578308,329.171875 255.553909,330.174683 
	C258.337128,333.035583 261.626282,335.400391 264.451233,338.225555 
	C268.762939,342.537628 272.749542,347.174713 277.060516,351.487549 
	C283.167145,357.596802 289.466095,363.513550 295.601318,369.594849 
	C296.064697,370.054199 295.878265,371.169067 295.993896,371.979218 
	C288.641998,371.983765 281.290070,371.988342 273.469727,371.984589 
z"/>
<path fill="#7740F0" opacity="1.000000" stroke="none" 
	d="
M296.463013,371.987427 
	C295.878265,371.169067 296.064697,370.054199 295.601318,369.594849 
	C289.466095,363.513550 283.167145,357.596802 277.060516,351.487549 
	C272.749542,347.174713 268.762939,342.537628 264.451233,338.225555 
	C261.626282,335.400391 258.337128,333.035583 255.553909,330.174683 
	C254.578308,329.171875 254.491837,327.304047 253.998138,325.433075 
	C260.351257,325.026672 266.705597,325.018463 273.570343,325.364075 
	C279.645477,332.102295 285.100983,338.586670 290.817810,344.831757 
	C294.007935,348.316711 297.762970,351.279205 301.031769,354.698547 
	C306.451172,360.367523 311.683624,366.215179 316.994843,371.987549 
	C310.307281,371.990265 303.619690,371.992950 296.463013,371.987427 
z"/>
<path fill="#7644F0" opacity="1.000000" stroke="none" 
	d="
M317.455750,371.994629 
	C311.683624,366.215179 306.451172,360.367523 301.031769,354.698547 
	C297.762970,351.279205 294.007935,348.316711 290.817810,344.831757 
	C285.100983,338.586670 279.645477,332.102295 274.038452,325.372498 
	C278.017181,325.017517 282.038239,325.007904 286.566681,325.355042 
	C291.518921,331.203949 295.586487,337.063599 300.495056,342.104309 
	C308.322083,350.142059 316.791534,357.550629 324.795349,365.422485 
	C326.601410,367.198730 327.609802,369.786011 328.985352,372.000000 
	C325.295807,372.000580 321.606232,372.001129 317.455750,371.994629 
z"/>
<path fill="#7052F0" opacity="1.000000" stroke="none" 
	d="
M329.444458,372.005127 
	C327.609802,369.786011 326.601410,367.198730 324.795349,365.422485 
	C316.791534,357.550629 308.322083,350.142059 300.495056,342.104309 
	C295.586487,337.063599 291.518921,331.203949 287.028809,325.360352 
	C289.687988,325.000488 292.392334,324.992035 295.546509,324.989136 
	C296.856079,326.687927 297.381195,328.698761 298.634094,330.018768 
	C303.750275,335.409119 309.052856,340.624908 314.354218,345.836395 
	C321.909485,353.263611 329.512360,360.642639 337.137909,367.997650 
	C337.673645,368.514435 338.563141,368.664368 339.652771,368.994904 
	C339.081757,370.002258 338.269989,371.657501 337.185089,371.861755 
	C334.831970,372.304688 332.339203,372.005798 329.444458,372.005127 
z"/>
<path fill="#5691F8" opacity="1.000000" stroke="none" 
	d="
M280.529816,212.001328 
	C281.789337,217.098907 283.363403,221.451553 288.975586,223.426788 
	C289.949097,223.769409 289.865997,227.114136 290.266693,229.051865 
	C296.887024,227.348801 298.124329,228.175186 296.998169,234.643845 
	C293.054718,234.667389 288.700836,235.249847 285.306091,233.713287 
	C281.863312,232.154968 279.270416,228.598602 276.485779,225.741425 
	C273.856873,223.044052 272.451111,219.252563 268.087189,218.143280 
	C266.650787,217.778137 265.823212,215.017929 263.817657,211.998566 
	C270.306549,211.998566 275.184753,211.998566 280.529816,212.001328 
z"/>
</svg>