<svg version="1.1" id="Layer_1" xmlns="http://www.w3.org/2000/svg" xmlns:xlink="http://www.w3.org/1999/xlink" x="0px" y="0px"
	 width="100%" viewBox="0 0 500 500" enable-background="new 0 0 500 500" xml:space="preserve">
<path fill="#000000" opacity="1.000000" stroke="none" 
	d="
M317.000000,501.000000 
	C211.333359,501.000000 106.166718,501.000000 1.000057,501.000000 
	C1.000038,334.333405 1.000038,167.666794 1.000019,1.000146 
	C167.666565,1.000097 334.333130,1.000097 500.999756,1.000049 
	C500.999847,167.666519 500.999847,334.333038 500.999939,500.999786 
	C439.833344,501.000000 378.666656,501.000000 317.000000,501.000000 
M247.070541,175.035645 
	C229.700699,175.100403 212.330872,175.165161 194.481750,175.129364 
	C194.102219,175.314178 194.018433,175.589142 194.057556,176.468414 
	C194.089813,176.646317 194.122070,176.824234 194.034744,177.554260 
	C194.341324,177.750214 194.647888,177.946167 194.997726,178.863403 
	C195.062439,179.579697 195.127151,180.295975 195.090256,181.538116 
	C195.376144,181.737640 195.662048,181.937164 195.990540,183.033783 
	C196.331421,187.290741 196.711929,191.544968 197.005508,195.805191 
	C197.792664,207.227386 195.738235,218.218292 191.642441,228.829895 
	C185.684296,244.266541 180.655487,259.759583 183.995438,276.732178 
	C187.386505,293.964478 195.947906,307.766510 209.878677,318.459045 
	C218.506729,325.081482 228.274445,328.902649 238.190491,331.112762 
	C238.190491,338.916901 238.190491,346.314850 238.190491,353.503815 
	C226.880051,357.255157 216.042908,360.849487 204.999817,364.512146 
	C204.999817,366.779633 205.226151,369.125824 204.951233,371.411743 
	C204.428513,375.758331 206.015579,377.203949 210.479584,377.130707 
	C225.630829,376.882019 240.788651,377.035431 255.943970,377.035339 
	C268.876953,377.035248 281.809906,377.035339 294.981842,377.035339 
	C294.981842,374.214417 294.840851,371.900909 295.013336,369.611023 
	C295.305939,365.726562 294.539612,363.833221 289.864807,362.727325 
	C281.118347,360.658234 272.715302,357.096100 264.247253,353.945831 
	C263.233490,353.568695 262.086212,351.910309 262.051208,350.812286 
	C261.844849,344.339996 261.949585,337.857788 261.949585,331.441376 
	C307.067688,321.613739 326.072083,278.545380 313.956268,243.281189 
	C310.629395,232.212875 305.830994,221.332245 304.388702,210.023575 
	C302.940857,198.671524 304.837921,186.892868 305.277039,175.087128 
	C298.123596,175.087128 290.818176,175.087128 283.111023,175.087128 
	C284.715973,170.379990 286.007782,165.897827 287.818909,161.636383 
	C288.499664,160.034576 290.154785,158.278015 291.757141,157.723816 
	C309.853088,151.465225 328.031921,145.446732 346.173553,139.319565 
	C353.487152,136.849442 353.509186,136.785446 350.866608,129.746323 
	C349.684448,126.597275 348.269379,125.413475 344.224945,126.821289 
	C323.756897,133.945999 303.097137,140.520020 282.504608,147.287018 
	C280.033539,148.099045 278.361359,148.725632 277.648865,152.251465 
	C276.258606,159.131241 273.410706,165.741913 270.831543,172.332962 
	C270.356812,173.546097 268.335205,174.830551 266.966461,174.901398 
	C260.654449,175.228149 254.320847,175.137177 247.070541,175.035645 
M207.610031,158.879059 
	C209.826721,160.905441 211.898193,164.450745 214.286789,164.679123 
	C222.076920,165.423950 229.982788,164.958206 238.022491,164.958206 
	C231.761246,140.742767 209.899567,127.225685 187.213058,131.382645 
	C162.663712,135.880951 146.281509,156.103516 150.260513,184.049988 
	C152.854752,202.270584 169.843704,217.836365 185.369431,218.794083 
	C186.078110,211.397003 186.789780,203.968857 187.475891,196.807343 
	C173.978851,190.172287 169.168137,175.998306 175.972717,165.158997 
	C182.630615,154.553284 194.997498,149.829529 207.610031,158.879059 
z"/>
<path fill="#EFE0F3" opacity="1.000000" stroke="none" 
	d="
M194.154343,177.002136 
	C194.122070,176.824234 194.089813,176.646317 194.298065,176.126587 
	C194.730179,175.638474 194.870987,175.453522 194.961029,175.229919 
	C212.330872,175.165161 229.700699,175.100403 247.627594,175.455063 
	C249.785156,176.658310 251.385696,177.442123 252.521515,178.277893 
	C244.711945,178.478134 237.367081,178.626434 229.572525,178.642776 
	C218.607895,178.510834 208.092957,178.510834 198.085358,178.510834 
	C198.917496,185.476852 199.656387,191.662384 200.337692,198.312851 
	C200.308502,201.559174 200.336899,204.340576 200.264069,207.520264 
	C200.022141,209.568649 199.881454,211.218735 199.551056,213.168350 
	C198.957260,215.310257 198.553192,217.152634 198.063980,219.393341 
	C197.034546,223.195801 196.090256,226.599960 195.087402,230.354279 
	C194.324127,232.407730 193.619431,234.111023 192.672562,236.087158 
	C191.807053,237.899704 191.072144,239.404541 190.578262,240.984711 
	C186.938568,252.630051 183.948914,264.337433 187.648605,276.632202 
	C187.516403,276.690491 187.560287,276.976105 187.556641,277.397797 
	C188.639420,281.257050 189.725861,284.694641 190.796783,288.119568 
	C190.781265,288.106934 190.781036,288.148071 190.812531,288.492249 
	C191.536896,290.259369 192.229767,291.682312 192.995926,293.444641 
	C202.646576,312.022430 217.592499,323.258392 237.662735,327.553711 
	C240.897049,328.245880 242.099747,329.343384 241.941574,332.701813 
	C241.659882,338.682953 241.537659,344.704041 241.911057,350.673218 
	C242.200867,355.306396 239.964783,357.256653 236.014160,358.388885 
	C228.391968,360.573425 220.853653,363.068726 213.183105,365.059723 
	C208.628693,366.241913 207.223099,368.556488 208.872131,373.034058 
	C236.459488,373.034058 264.002808,373.034058 293.112061,373.034058 
	C291.733307,370.165100 291.235199,366.895813 289.697662,366.297485 
	C280.778931,362.826691 271.655243,359.857391 262.512024,357.003082 
	C259.543335,356.076355 258.690277,354.533142 258.773682,351.614502 
	C258.911407,346.797699 258.678711,341.970306 258.684204,336.789062 
	C258.709167,335.947723 258.652069,335.464722 258.677002,334.555603 
	C258.886871,332.114990 259.014740,330.100555 259.100098,328.071899 
	C259.057556,328.057739 259.083862,328.143433 259.473480,328.119263 
	C262.393616,327.437714 264.924164,326.780304 267.816772,326.167786 
	C272.452332,324.428680 276.725830,322.644623 281.311981,320.803833 
	C282.808685,319.898804 283.992737,319.050507 285.121399,318.140808 
	C285.066010,318.079407 285.127930,318.232758 285.419922,318.193298 
	C286.152588,317.793152 286.593262,317.432495 287.021301,317.045715 
	C287.008636,317.019592 287.056641,317.052032 287.337463,316.996277 
	C287.879974,316.669647 288.141693,316.398834 288.581024,316.074097 
	C288.758606,316.020172 289.001648,315.739624 289.260986,315.660217 
	C290.010468,315.067780 290.500610,314.554718 291.010620,314.038391 
	C291.030487,314.035156 291.044312,313.997375 291.288513,313.925812 
	C291.740753,313.595581 291.948792,313.336914 292.365570,313.009186 
	C292.848022,312.790985 293.025604,312.565979 293.356873,312.145325 
	C293.776337,311.710052 293.946014,311.394531 294.063721,311.072906 
	C294.011749,311.066803 294.097198,311.127289 294.356262,311.060577 
	C294.785431,310.696930 294.955566,310.399994 295.058655,310.074219 
	C294.991638,310.045349 295.113708,310.126251 295.382263,310.050598 
	C295.768097,309.648407 295.885345,309.321838 296.162109,308.722778 
	C297.285004,307.335480 298.248413,306.220673 299.544098,305.020905 
	C303.351044,298.704620 306.825684,292.473358 310.288910,286.210114 
	C310.277496,286.178131 310.230591,286.129028 310.491730,285.953979 
	C310.882843,285.167480 311.012817,284.556091 311.217194,283.833862 
	C311.291626,283.723083 311.132263,283.508972 311.405396,283.199463 
	C311.901978,281.314240 312.125427,279.738556 312.337341,278.134064 
	C312.325775,278.105286 312.271667,278.135559 312.543945,277.949951 
	C312.921356,276.671814 313.026520,275.579285 313.383301,274.105377 
	C313.133179,265.969971 312.631470,258.215912 312.218201,250.389893 
	C312.306610,250.317917 312.284088,250.090958 312.294220,249.704453 
	C312.095367,248.069519 311.886383,246.821091 311.990387,245.200012 
	C312.876129,244.533493 313.448883,244.239639 314.021667,243.945786 
	C326.072083,278.545380 307.067688,321.613739 261.949585,331.441376 
	C261.949585,337.857788 261.844849,344.339996 262.051208,350.812286 
	C262.086212,351.910309 263.233490,353.568695 264.247253,353.945831 
	C272.715302,357.096100 281.118347,360.658234 289.864807,362.727325 
	C294.539612,363.833221 295.305939,365.726562 295.013336,369.611023 
	C294.840851,371.900909 294.981842,374.214417 294.981842,377.035339 
	C281.809906,377.035339 268.876953,377.035248 255.943970,377.035339 
	C240.788651,377.035431 225.630829,376.882019 210.479584,377.130707 
	C206.015579,377.203949 204.428513,375.758331 204.951233,371.411743 
	C205.226151,369.125824 204.999817,366.779633 204.999817,364.512146 
	C216.042908,360.849487 226.880051,357.255157 238.190491,353.503815 
	C238.190491,346.314850 238.190491,338.916901 238.190491,331.112762 
	C228.274445,328.902649 218.506729,325.081482 209.878677,318.459045 
	C195.947906,307.766510 187.386505,293.964478 183.995438,276.732178 
	C180.655487,259.759583 185.684296,244.266541 191.642441,228.829895 
	C195.738235,218.218292 197.792664,207.227386 197.005508,195.805191 
	C196.711929,191.544968 196.331421,187.290741 195.901901,182.362549 
	C195.674133,181.402725 195.467010,181.176392 195.191879,181.012268 
	C195.127151,180.295975 195.062439,179.579697 194.902359,178.275253 
	C194.656494,177.394897 194.438950,177.166580 194.154343,177.002136 
z"/>
<path fill="#EDE7F4" opacity="1.000000" stroke="none" 
	d="
M207.317932,158.640823 
	C194.997498,149.829529 182.630615,154.553284 175.972717,165.158997 
	C169.168137,175.998306 173.978851,190.172287 187.475891,196.807343 
	C186.789780,203.968857 186.078110,211.397003 185.369431,218.794083 
	C169.843704,217.836365 152.854752,202.270584 150.260513,184.049988 
	C146.281509,156.103516 162.663712,135.880951 187.213058,131.382645 
	C209.899567,127.225685 231.761246,140.742767 238.022491,164.958206 
	C229.982788,164.958206 222.076920,165.423950 214.286789,164.679123 
	C211.898193,164.450745 209.826721,160.905441 207.317932,158.640823 
M173.048813,188.383118 
	C172.777496,188.175720 172.506195,187.968323 172.352554,187.742584 
	C172.352554,187.742584 172.355759,187.623550 172.251709,186.886688 
	C167.575043,175.659210 169.779114,165.774429 178.707001,156.816208 
	C183.449554,154.836487 188.192108,152.856781 193.797073,151.004669 
	C202.023392,150.658813 208.229248,154.696487 213.985229,160.003235 
	C215.204483,161.127335 217.299179,161.301941 219.861542,162.057251 
	C224.184418,161.614716 228.507309,161.172180 233.528458,160.658157 
	C227.713776,147.609238 218.853714,139.219131 204.799271,135.384048 
	C196.753143,133.355804 188.814148,133.200531 180.304474,136.745697 
	C173.282272,139.057327 167.453461,143.070648 162.332275,149.275269 
	C160.620636,151.902725 158.602509,154.382935 157.255753,157.185730 
	C153.464096,165.076736 151.311096,173.284302 153.702438,182.047836 
	C153.702438,182.047836 153.647339,182.172241 153.524704,182.983780 
	C154.641235,186.428375 155.757767,189.872986 156.979401,193.992859 
	C162.183502,204.636276 170.366745,211.722076 182.811447,215.809601 
	C183.196213,209.854568 184.435333,204.613373 183.490768,199.800766 
	C182.967056,197.132401 178.793900,195.180298 176.015076,192.412781 
	C175.700912,192.247665 175.386749,192.082550 175.107834,191.971771 
	C175.107834,191.971771 175.118179,191.907852 175.068665,191.338211 
	C174.712708,190.913666 174.356766,190.489120 174.014755,189.996979 
	C174.014755,189.996979 173.947830,189.980026 173.847031,189.486176 
	C173.590698,189.285278 173.334381,189.084366 173.062607,188.973953 
	C173.062607,188.973953 173.137192,188.920441 173.048813,188.383118 
z"/>
<path fill="#E3EBEF" opacity="1.000000" stroke="none" 
	d="
M252.986221,178.225952 
	C251.385696,177.442123 249.785156,176.658310 248.089813,175.535217 
	C254.320847,175.137177 260.654449,175.228149 266.966461,174.901398 
	C268.335205,174.830551 270.356812,173.546097 270.831543,172.332962 
	C273.410706,165.741913 276.258606,159.131241 277.648865,152.251465 
	C278.361359,148.725632 280.033539,148.099045 282.504608,147.287018 
	C303.097137,140.520020 323.756897,133.945999 344.224945,126.821289 
	C348.269379,125.413475 349.684448,126.597275 350.866608,129.746323 
	C353.509186,136.785446 353.487152,136.849442 346.173553,139.319565 
	C328.031921,145.446732 309.853088,151.465225 291.757141,157.723816 
	C290.154785,158.278015 288.499664,160.034576 287.818909,161.636383 
	C286.007782,165.897827 284.715973,170.379990 283.111023,175.087128 
	C290.818176,175.087128 298.123596,175.087128 305.277039,175.087128 
	C304.837921,186.892868 302.940857,198.671524 304.388702,210.023575 
	C305.830994,221.332245 310.629395,232.212875 313.988953,243.613495 
	C313.448883,244.239639 312.876129,244.533493 311.780823,244.883453 
	C308.302124,236.588760 305.345947,228.237961 302.333405,219.467804 
	C298.758575,205.724701 300.288330,192.362228 302.459442,178.286865 
	C294.461884,178.286865 286.921295,178.286865 278.965332,178.286865 
	C281.161438,170.697678 283.133484,163.882767 285.080566,157.044281 
	C285.055603,157.020737 285.018127,157.077911 285.244141,156.974060 
	C285.732025,156.644394 285.893036,156.361267 286.299133,155.890869 
	C307.356018,148.841171 328.066956,141.921417 349.056061,134.908722 
	C348.072388,132.665665 347.425476,131.190582 346.627777,129.371597 
	C328.561249,135.549942 310.754395,141.639481 292.595398,147.790863 
	C291.159210,148.236450 290.075134,148.620148 288.996155,149.003387 
	C289.001221,149.002914 289.007233,148.994797 288.705078,149.025421 
	C287.910095,149.352554 287.417297,149.649048 286.950714,149.930954 
	C286.976959,149.916367 286.954681,149.860428 286.569885,149.887817 
	C282.611816,150.185364 280.748474,152.078156 279.777588,155.585876 
	C278.289246,160.963348 276.395752,166.238754 274.457489,171.477280 
	C273.520996,174.008362 272.090973,176.356827 270.492493,178.650177 
	C268.427155,178.415192 266.753754,178.318008 264.811493,177.906250 
	C261.669769,177.798370 258.796875,178.005081 255.559967,178.275909 
	C254.459366,178.301987 253.722794,178.263962 252.986221,178.225952 
z"/>
<path fill="#E3EBEF" opacity="1.000000" stroke="none" 
	d="
M194.094543,177.278198 
	C194.438950,177.166580 194.656494,177.394897 194.880737,177.914612 
	C194.647888,177.946167 194.341324,177.750214 194.094543,177.278198 
z"/>
<path fill="#E3EBEF" opacity="1.000000" stroke="none" 
	d="
M194.721390,175.179642 
	C194.870987,175.453522 194.730179,175.638474 194.384491,175.869507 
	C194.018433,175.589142 194.102219,175.314178 194.721390,175.179642 
z"/>
<path fill="#E3EBEF" opacity="1.000000" stroke="none" 
	d="
M195.141068,181.275192 
	C195.467010,181.176392 195.674133,181.402725 195.880600,181.914001 
	C195.662048,181.937164 195.376144,181.737640 195.141068,181.275192 
z"/>
<path fill="#7A39F0" opacity="1.000000" stroke="none" 
	d="
M293.107086,312.265076 
	C293.025604,312.565979 292.848022,312.790985 292.126038,313.088043 
	C291.466614,313.489746 291.255463,313.743561 291.044312,313.997375 
	C291.044312,313.997375 291.030487,314.035156 290.715820,314.062164 
	C289.934631,314.639313 289.468140,315.189453 289.001648,315.739624 
	C289.001648,315.739624 288.758606,316.020172 288.297607,316.131897 
	C287.576599,316.513092 287.316620,316.782562 287.056641,317.052032 
	C287.056641,317.052032 287.008636,317.019592 286.713440,317.054657 
	C285.988159,317.470734 285.558044,317.851746 285.127930,318.232758 
	C285.127930,318.232758 285.066010,318.079407 284.761810,318.110260 
	C283.314026,318.431671 282.170441,318.722260 281.159576,318.698486 
	C281.788452,317.193420 282.284637,316.002716 282.780792,314.812012 
	C281.985413,315.472931 281.190033,316.133850 280.394653,316.794769 
	C279.019623,314.284027 277.113739,311.921295 276.365173,309.235962 
	C273.695709,299.659729 264.630402,295.558990 258.588745,289.089844 
	C255.406052,285.681946 251.693924,282.471954 248.723038,278.609253 
	C246.938278,276.288727 244.783600,274.241852 242.710419,272.156281 
	C238.522614,267.943420 234.345490,263.715881 230.036270,259.629028 
	C225.624283,255.444733 221.424072,250.893326 216.463547,247.470047 
	C211.049240,243.733643 206.475586,239.566254 203.348740,233.779388 
	C202.282074,231.805313 200.903397,229.999863 199.869156,228.424789 
	C197.865326,229.094818 196.505646,229.549469 195.145966,230.004105 
	C196.090256,226.599960 197.034546,223.195801 198.400482,219.308929 
	C199.524521,216.873550 200.226944,214.920898 200.948578,212.572601 
	C201.003433,211.119446 201.039047,210.061935 201.318954,208.751892 
	C202.442398,207.118896 203.321518,205.738419 204.200653,204.357941 
	C205.180313,205.486298 206.152451,206.621323 207.142395,207.740585 
	C207.762726,208.441940 208.485153,209.766022 209.032608,209.702240 
	C212.401428,209.309677 212.848557,212.038208 214.031769,214.458893 
	C214.061554,218.017883 214.099030,221.118271 214.132751,224.434158 
	C214.129013,224.649658 213.924515,225.029129 213.572235,225.110138 
	C212.954010,226.509720 212.688034,227.828278 212.448669,229.204346 
	C212.475281,229.261841 212.438690,229.383148 212.081085,229.436890 
	C209.440994,233.575073 210.373276,235.763763 214.779419,235.911270 
	C220.852219,236.114548 226.936356,235.979263 233.067322,236.322891 
	C239.415985,243.232376 245.616486,249.904007 252.037140,256.356567 
	C258.443787,262.795105 264.981079,269.110657 271.625183,275.304077 
	C279.298492,282.456940 287.207611,289.356995 294.874420,296.516602 
	C296.261841,297.812225 297.062836,299.784332 297.967468,301.530701 
	C298.541931,302.639709 298.807648,303.908661 299.211823,305.105896 
	C298.248413,306.220673 297.285004,307.335480 295.948242,308.853271 
	C295.421173,309.546265 295.267426,309.836243 295.113708,310.126251 
	C295.113708,310.126251 294.991638,310.045349 294.818420,310.165649 
	C294.462494,310.566376 294.279846,310.846832 294.097198,311.127289 
	C294.097198,311.127289 294.011749,311.066803 293.816223,311.193420 
	C293.449463,311.635071 293.278290,311.950073 293.107086,312.265076 
z"/>
<path fill="#7F2EEF" opacity="1.000000" stroke="none" 
	d="
M195.087402,230.354279 
	C196.505646,229.549469 197.865326,229.094818 199.869156,228.424789 
	C200.903397,229.999863 202.282074,231.805313 203.348740,233.779388 
	C206.475586,239.566254 211.049240,243.733643 216.463547,247.470047 
	C221.424072,250.893326 225.624283,255.444733 230.036270,259.629028 
	C234.345490,263.715881 238.522614,267.943420 242.710419,272.156281 
	C244.783600,274.241852 246.938278,276.288727 248.723038,278.609253 
	C251.693924,282.471954 255.406052,285.681946 258.588745,289.089844 
	C264.630402,295.558990 273.695709,299.659729 276.365173,309.235962 
	C277.113739,311.921295 279.019623,314.284027 280.394653,316.794769 
	C281.190033,316.133850 281.985413,315.472931 282.780792,314.812012 
	C282.284637,316.002716 281.788452,317.193420 281.152100,319.006348 
	C281.007721,320.039246 281.003510,320.449890 280.999329,320.860565 
	C276.725830,322.644623 272.452332,324.428680 267.380188,326.146790 
	C265.717682,326.037201 264.853821,325.993469 264.134460,325.678833 
	C264.117767,323.876556 264.541229,321.801208 263.702698,320.900177 
	C257.168671,313.878723 250.410889,307.064392 243.664597,300.243073 
	C242.871185,299.440826 241.643738,299.084991 240.764755,298.346863 
	C238.618073,296.544067 236.383820,294.797943 234.498474,292.741455 
	C230.430084,288.303772 226.842300,283.394348 222.543289,279.206177 
	C215.255203,272.105927 207.729080,265.226318 199.982315,258.630646 
	C196.160416,255.376663 192.426819,252.402817 191.843521,246.660400 
	C192.109436,242.830978 192.512100,239.322647 192.914749,235.814301 
	C193.619431,234.111023 194.324127,232.407730 195.087402,230.354279 
z"/>
<path fill="#881CEB" opacity="1.000000" stroke="none" 
	d="
M187.560303,276.976105 
	C187.560287,276.976105 187.516403,276.690491 187.702347,276.125122 
	C187.921280,271.036194 187.954269,266.512604 188.268723,262.290039 
	C188.799667,266.046051 187.888901,270.246613 189.533142,272.805298 
	C193.293243,278.656647 198.293808,283.712677 202.825912,289.061768 
	C203.104126,289.390106 203.756760,289.707764 204.122849,289.609924 
	C211.489319,287.641724 208.615479,292.238129 207.994003,294.242828 
	C210.439240,295.624908 212.492126,296.560181 214.290115,297.850647 
	C217.539078,300.182526 220.637970,302.723694 223.791656,305.187592 
	C224.032974,305.376129 224.211975,305.644440 224.581131,306.054871 
	C223.785828,306.749146 223.004074,307.431580 221.003647,309.177917 
	C229.804169,310.356232 229.998611,322.001434 239.579773,321.244873 
	C240.065765,321.206512 240.901047,322.237396 241.133591,322.920288 
	C242.175674,325.980316 243.115524,329.078918 243.973877,332.196167 
	C244.390930,333.710693 244.547836,335.296875 244.822510,336.850616 
	C245.291626,336.826416 245.760757,336.802246 246.229874,336.778076 
	C246.735245,334.580292 247.240616,332.382538 248.065582,328.794891 
	C251.431274,334.193237 254.110229,338.490082 257.266205,343.552032 
	C257.876404,340.626648 258.239258,338.887024 258.602142,337.147400 
	C258.678711,341.970306 258.911407,346.797699 258.773682,351.614502 
	C258.690277,354.533142 259.543335,356.076355 262.512024,357.003082 
	C271.655243,359.857391 280.778931,362.826691 289.697662,366.297485 
	C291.235199,366.895813 291.733307,370.165100 293.112061,373.034058 
	C264.002808,373.034058 236.459488,373.034058 208.872131,373.034058 
	C207.223099,368.556488 208.628693,366.241913 213.183105,365.059723 
	C220.853653,363.068726 228.391968,360.573425 236.014160,358.388885 
	C239.964783,357.256653 242.200867,355.306396 241.911057,350.673218 
	C241.537659,344.704041 241.659882,338.682953 241.941574,332.701813 
	C242.099747,329.343384 240.897049,328.245880 237.662735,327.553711 
	C217.592499,323.258392 202.646576,312.022430 193.020752,293.064636 
	C192.241882,290.946136 191.511459,289.547089 190.781036,288.148071 
	C190.781036,288.148071 190.781265,288.106934 190.854919,287.698425 
	C189.805817,283.851990 188.683060,280.414032 187.560303,276.976105 
z"/>
<path fill="#8424ED" opacity="1.000000" stroke="none" 
	d="
M258.684204,336.789062 
	C258.239258,338.887024 257.876404,340.626648 257.266205,343.552032 
	C254.110229,338.490082 251.431274,334.193237 248.065582,328.794891 
	C247.240616,332.382538 246.735245,334.580292 246.229874,336.778076 
	C245.760757,336.802246 245.291626,336.826416 244.822510,336.850616 
	C244.547836,335.296875 244.390930,333.710693 243.973877,332.196167 
	C243.115524,329.078918 242.175674,325.980316 241.133591,322.920288 
	C240.901047,322.237396 240.065765,321.206512 239.579773,321.244873 
	C229.998611,322.001434 229.804169,310.356232 221.003647,309.177917 
	C223.004074,307.431580 223.785828,306.749146 224.581131,306.054871 
	C224.211975,305.644440 224.032974,305.376129 223.791656,305.187592 
	C220.637970,302.723694 217.539078,300.182526 214.290115,297.850647 
	C212.492126,296.560181 210.439240,295.624908 207.994003,294.242828 
	C208.615479,292.238129 211.489319,287.641724 204.122849,289.609924 
	C203.756760,289.707764 203.104126,289.390106 202.825912,289.061768 
	C198.293808,283.712677 193.293243,278.656647 189.533142,272.805298 
	C187.888901,270.246613 188.799667,266.046051 188.267395,261.849854 
	C189.316498,256.399567 190.648376,251.690521 191.980255,246.981461 
	C192.426819,252.402817 196.160416,255.376663 199.982315,258.630646 
	C207.729080,265.226318 215.255203,272.105927 222.543289,279.206177 
	C226.842300,283.394348 230.430084,288.303772 234.498474,292.741455 
	C236.383820,294.797943 238.618073,296.544067 240.764755,298.346863 
	C241.643738,299.084991 242.871185,299.440826 243.664597,300.243073 
	C250.410889,307.064392 257.168671,313.878723 263.702698,320.900177 
	C264.541229,321.801208 264.117767,323.876556 263.738037,325.697693 
	C261.826050,326.706146 260.454956,327.424774 259.083862,328.143433 
	C259.083862,328.143433 259.057556,328.057739 258.721130,328.124329 
	C256.351318,330.519653 256.101471,332.793152 258.594971,334.981720 
	C258.652069,335.464722 258.709167,335.947723 258.684204,336.789062 
z"/>
<path fill="#7743F0" opacity="1.000000" stroke="none" 
	d="
M299.544098,305.020905 
	C298.807648,303.908661 298.541931,302.639709 297.967468,301.530701 
	C297.062836,299.784332 296.261841,297.812225 294.874420,296.516602 
	C287.207611,289.356995 279.298492,282.456940 271.625183,275.304077 
	C264.981079,269.110657 258.443787,262.795105 252.037140,256.356567 
	C245.616486,249.904007 239.415985,243.232376 233.533966,236.319778 
	C241.295975,235.649536 248.643021,235.316284 256.215973,235.157181 
	C257.113586,238.356033 258.792206,235.900833 260.255493,235.987717 
	C260.674530,235.991837 260.842133,235.994095 261.013855,236.370575 
	C262.336914,241.529099 265.009308,245.265076 269.135895,248.130096 
	C273.312317,251.029755 277.636169,253.801651 279.268646,259.240265 
	C279.846436,261.165131 281.527710,262.927521 283.077698,264.361450 
	C288.619080,269.487823 294.192505,274.596283 300.012085,279.398499 
	C303.172119,282.006134 306.853912,283.981537 310.300354,286.242096 
	C306.825684,292.473358 303.351044,298.704620 299.544098,305.020905 
z"/>
<path fill="#724CF3" opacity="1.000000" stroke="none" 
	d="
M310.288940,286.210114 
	C306.853912,283.981537 303.172119,282.006134 300.012085,279.398499 
	C294.192505,274.596283 288.619080,269.487823 283.077698,264.361450 
	C281.527710,262.927521 279.846436,261.165131 279.268646,259.240265 
	C277.636169,253.801651 273.312317,251.029755 269.135895,248.130096 
	C265.009308,245.265076 262.336914,241.529099 261.479919,236.369476 
	C265.592743,235.996124 269.272125,235.733231 272.881439,236.121643 
	C274.475250,236.293167 276.460327,237.426193 277.348053,238.742828 
	C280.689362,243.698563 284.028931,248.377380 289.485596,251.476151 
	C292.548981,253.215805 294.797607,256.411835 297.362915,259.001617 
	C300.680328,262.350647 303.704987,266.041534 307.311310,269.036621 
	C310.317596,271.533386 312.454132,274.092529 312.271667,278.135559 
	C312.271667,278.135559 312.325775,278.105286 311.970245,278.328217 
	C311.453888,280.203766 311.293091,281.856354 311.132263,283.508972 
	C311.132263,283.508972 311.291626,283.723083 310.953583,284.021637 
	C310.487244,284.923126 310.358917,285.526093 310.230591,286.129028 
	C310.230591,286.129028 310.277496,286.178131 310.288940,286.210114 
z"/>
<path fill="#6A65F2" opacity="1.000000" stroke="none" 
	d="
M302.389771,219.887146 
	C305.345947,228.237961 308.302124,236.588760 311.467865,245.256119 
	C311.886383,246.821091 312.095367,248.069519 311.925201,249.553467 
	C309.349579,248.780624 306.773804,248.203827 305.034637,246.675186 
	C301.262817,243.359909 298.065308,239.394287 294.321960,236.041901 
	C292.974243,234.834930 290.734589,234.623947 288.896362,233.580460 
	C287.247406,226.142365 285.604095,219.082230 283.974091,211.724731 
	C283.823425,210.677780 283.659454,209.928192 283.388794,208.791077 
	C283.294250,207.602020 283.306366,206.800537 283.518250,205.658722 
	C283.823273,203.329544 283.607788,201.246536 284.153595,199.386978 
	C284.483765,198.262131 285.865112,197.016068 287.015411,196.698624 
	C287.924286,196.447815 290.068848,197.396561 290.167877,198.042160 
	C290.665192,201.284134 293.353119,201.742615 295.463379,203.133942 
	C296.677795,203.934631 297.576019,205.552536 298.105621,206.990723 
	C299.670105,211.239288 300.980164,215.581543 302.389771,219.887146 
z"/>
<path fill="#6E57F1" opacity="1.000000" stroke="none" 
	d="
M288.901978,233.958435 
	C290.734589,234.623947 292.974243,234.834930 294.321960,236.041901 
	C298.065308,239.394287 301.262817,243.359909 305.034637,246.675186 
	C306.773804,248.203827 309.349579,248.780624 311.915070,249.939972 
	C312.284088,250.090958 312.306610,250.317917 312.188599,250.889587 
	C312.424316,259.136444 312.777985,266.811584 313.131683,274.486755 
	C313.026520,275.579285 312.921356,276.671814 312.543945,277.949951 
	C312.454132,274.092529 310.317596,271.533386 307.311310,269.036621 
	C303.704987,266.041534 300.680328,262.350647 297.362915,259.001617 
	C294.797607,256.411835 292.548981,253.215805 289.485596,251.476151 
	C284.028931,248.377380 280.689362,243.698563 277.348053,238.742828 
	C276.460327,237.426193 274.475250,236.293167 272.881439,236.121643 
	C269.272125,235.733231 265.592743,235.996124 261.475800,235.995239 
	C260.842133,235.994095 260.674530,235.991837 260.121277,235.686676 
	C259.907684,234.328308 260.079773,233.272888 260.318146,232.598831 
	C261.558838,233.329773 262.730957,233.972626 263.908051,233.981827 
	C272.238770,234.046860 280.570557,233.981934 288.901978,233.958435 
z"/>
<path fill="#6E57F1" opacity="1.000000" stroke="none" 
	d="
M200.395294,197.847931 
	C199.656387,191.662384 198.917496,185.476852 198.085358,178.510834 
	C208.092957,178.510834 218.607895,178.510834 229.751678,178.923416 
	C232.855484,180.204407 236.047943,180.381302 237.673782,182.068146 
	C243.003586,187.597916 246.202957,196.036819 256.334747,194.128510 
	C256.833832,194.034500 257.470642,194.671768 258.017639,195.097717 
	C257.991974,195.226913 257.987213,195.490326 257.522278,195.540726 
	C254.917053,195.612854 252.776611,195.625351 250.636490,195.657898 
	C239.459152,195.827866 228.281891,196.002914 217.142746,195.803955 
	C218.662872,194.634064 220.144867,193.836441 221.679596,193.010437 
	C221.679596,192.553070 221.888153,191.851791 221.648560,191.625916 
	C217.532867,187.746140 213.933258,182.751434 209.062347,180.379852 
	C202.565826,177.216766 199.889816,180.216202 200.649734,187.576691 
	C200.998596,190.955658 200.506210,194.421494 200.395294,197.847931 
z"/>
<path fill="#7743F0" opacity="1.000000" stroke="none" 
	d="
M200.337692,198.312851 
	C200.506210,194.421494 200.998596,190.955658 200.649734,187.576691 
	C199.889816,180.216202 202.565826,177.216766 209.062347,180.379852 
	C213.933258,182.751434 217.532867,187.746140 221.648560,191.625916 
	C221.888153,191.851791 221.679596,192.553070 221.679596,193.010437 
	C220.144867,193.836441 218.662872,194.634064 217.169724,196.251801 
	C217.051300,201.728165 216.944031,206.384384 216.580200,211.189682 
	C215.562271,212.225937 214.800858,213.113129 214.039444,214.000305 
	C212.848557,212.038208 212.401428,209.309677 209.032608,209.702240 
	C208.485153,209.766022 207.762726,208.441940 207.142395,207.740585 
	C206.152451,206.621323 205.180313,205.486298 204.200653,204.357941 
	C203.321518,205.738419 202.442398,207.118896 201.282272,208.494171 
	C200.789291,208.033310 200.577301,207.577637 200.365311,207.121979 
	C200.336899,204.340576 200.308502,201.559174 200.337692,198.312851 
z"/>
<path fill="#6A65F2" opacity="1.000000" stroke="none" 
	d="
M258.043335,194.968506 
	C257.470642,194.671768 256.833832,194.034500 256.334747,194.128510 
	C246.202957,196.036819 243.003586,187.597916 237.673782,182.068146 
	C236.047943,180.381302 232.855484,180.204407 230.201355,179.055359 
	C237.367081,178.626434 244.711945,178.478134 252.521515,178.277893 
	C253.722794,178.263962 254.459366,178.301987 256.016174,178.336807 
	C259.584381,178.296021 262.332367,178.258423 265.080353,178.220825 
	C266.753754,178.318008 268.427155,178.415192 270.320923,178.948914 
	C266.092682,179.765274 261.644073,180.145096 256.260345,180.604752 
	C259.370514,185.141815 261.868652,188.786072 264.878021,193.176056 
	C262.591339,193.775757 260.317322,194.372131 258.043335,194.968506 
z"/>
<path fill="#7A39F0" opacity="1.000000" stroke="none" 
	d="
M191.843521,246.660400 
	C190.648376,251.690521 189.316498,256.399567 187.985962,261.548828 
	C187.954269,266.512604 187.921280,271.036194 187.834549,276.066864 
	C183.948914,264.337433 186.938568,252.630051 190.578262,240.984711 
	C191.072144,239.404541 191.807053,237.899704 192.672562,236.087158 
	C192.512100,239.322647 192.109436,242.830978 191.843521,246.660400 
z"/>
<path fill="#6A65F2" opacity="1.000000" stroke="none" 
	d="
M313.383301,274.105377 
	C312.777985,266.811584 312.424316,259.136444 312.100189,250.961578 
	C312.631470,258.215912 313.133179,265.969971 313.383301,274.105377 
z"/>
<path fill="#7A39F0" opacity="1.000000" stroke="none" 
	d="
M187.556641,277.397797 
	C188.683060,280.414032 189.805817,283.851990 190.870438,287.711060 
	C189.725861,284.694641 188.639420,281.257050 187.556641,277.397797 
z"/>
<path fill="#881CEB" opacity="1.000000" stroke="none" 
	d="
M258.677002,334.555603 
	C256.101471,332.793152 256.351318,330.519653 258.763672,328.138489 
	C259.014740,330.100555 258.886871,332.114990 258.677002,334.555603 
z"/>
<path fill="#881CEB" opacity="1.000000" stroke="none" 
	d="
M259.473480,328.119263 
	C260.454956,327.424774 261.826050,326.706146 263.593567,325.968628 
	C264.853821,325.993469 265.717682,326.037201 267.018097,326.101898 
	C264.924164,326.780304 262.393616,327.437714 259.473480,328.119263 
z"/>
<path fill="#7743F0" opacity="1.000000" stroke="none" 
	d="
M200.929352,212.968231 
	C200.226944,214.920898 199.524521,216.873550 198.485596,218.910614 
	C198.553192,217.152634 198.957260,215.310257 199.847626,213.201370 
	C200.532379,212.945999 200.730865,212.957108 200.929352,212.968231 
z"/>
<path fill="#7A39F0" opacity="1.000000" stroke="none" 
	d="
M190.812531,288.492249 
	C191.511459,289.547089 192.241882,290.946136 192.947449,292.725189 
	C192.229767,291.682312 191.536896,290.259369 190.812531,288.492249 
z"/>
<path fill="#6E57F1" opacity="1.000000" stroke="none" 
	d="
M200.948578,212.572601 
	C200.730865,212.957108 200.532379,212.945999 200.037354,212.901855 
	C199.881454,211.218735 200.022141,209.568649 200.264069,207.520264 
	C200.577301,207.577637 200.789291,208.033310 201.037964,208.746689 
	C201.039047,210.061935 201.003433,211.119446 200.948578,212.572601 
z"/>
<path fill="#7743F0" opacity="1.000000" stroke="none" 
	d="
M281.311951,320.803833 
	C281.003510,320.449890 281.007721,320.039246 281.019409,319.320679 
	C282.170441,318.722260 283.314026,318.431671 284.817200,318.171661 
	C283.992737,319.050507 282.808685,319.898804 281.311951,320.803833 
z"/>
<path fill="#6E57F1" opacity="1.000000" stroke="none" 
	d="
M311.405396,283.199463 
	C311.293091,281.856354 311.453888,280.203766 311.981812,278.356995 
	C312.125427,279.738556 311.901978,281.314240 311.405396,283.199463 
z"/>
<path fill="#7743F0" opacity="1.000000" stroke="none" 
	d="
M289.260986,315.660217 
	C289.468140,315.189453 289.934631,314.639313 290.695953,314.065430 
	C290.500610,314.554718 290.010468,315.067780 289.260986,315.660217 
z"/>
<path fill="#6E57F1" opacity="1.000000" stroke="none" 
	d="
M310.491730,285.953979 
	C310.358917,285.526093 310.487244,284.923126 310.879150,284.132446 
	C311.012817,284.556091 310.882843,285.167480 310.491730,285.953979 
z"/>
<path fill="#7743F0" opacity="1.000000" stroke="none" 
	d="
M285.419922,318.193298 
	C285.558044,317.851746 285.988159,317.470734 286.726105,317.080780 
	C286.593262,317.432495 286.152588,317.793152 285.419922,318.193298 
z"/>
<path fill="#7743F0" opacity="1.000000" stroke="none" 
	d="
M295.382263,310.050598 
	C295.267426,309.836243 295.421173,309.546265 295.788757,309.125793 
	C295.885345,309.321838 295.768097,309.648407 295.382263,310.050598 
z"/>
<path fill="#7743F0" opacity="1.000000" stroke="none" 
	d="
M294.356262,311.060577 
	C294.279846,310.846832 294.462494,310.566376 294.885437,310.194489 
	C294.955566,310.399994 294.785431,310.696930 294.356262,311.060577 
z"/>
<path fill="#7743F0" opacity="1.000000" stroke="none" 
	d="
M293.356873,312.145325 
	C293.278290,311.950073 293.449463,311.635071 293.868164,311.199524 
	C293.946014,311.394531 293.776337,311.710052 293.356873,312.145325 
z"/>
<path fill="#7743F0" opacity="1.000000" stroke="none" 
	d="
M291.288513,313.925812 
	C291.255463,313.743561 291.466614,313.489746 291.917297,313.157104 
	C291.948792,313.336914 291.740753,313.595581 291.288513,313.925812 
z"/>
<path fill="#7743F0" opacity="1.000000" stroke="none" 
	d="
M287.337463,316.996277 
	C287.316620,316.782562 287.576599,316.513092 288.119995,316.185822 
	C288.141693,316.398834 287.879974,316.669647 287.337463,316.996277 
z"/>
<path fill="#7A39F0" opacity="1.000000" stroke="none" 
	d="
M176.265671,192.905350 
	C178.793900,195.180298 182.967056,197.132401 183.490768,199.800766 
	C184.435333,204.613373 183.196213,209.854568 182.811447,215.809601 
	C170.366745,211.722076 162.183502,204.636276 156.961227,193.227158 
	C155.844482,189.031723 154.745911,185.601974 153.647339,182.172241 
	C153.647339,182.172241 153.702438,182.047836 153.818573,181.606949 
	C153.660919,174.461166 153.819733,167.910172 160.020203,163.551682 
	C164.382477,168.785019 169.590332,173.338806 168.507355,181.295837 
	C168.248840,183.195297 170.992783,185.503403 172.355759,187.623550 
	C172.355759,187.623550 172.352554,187.742584 172.333893,188.016571 
	C172.589218,188.500519 172.863205,188.710480 173.137192,188.920441 
	C173.137192,188.920441 173.062607,188.973953 173.146393,189.160736 
	C173.393463,189.644516 173.632690,189.855347 173.947830,189.980026 
	C173.947830,189.980026 174.014755,189.996979 174.035004,190.320160 
	C174.409546,191.064850 174.763870,191.486343 175.118179,191.907852 
	C175.118179,191.907852 175.107834,191.971771 175.216644,192.185852 
	C175.638870,192.568390 175.952271,192.736862 176.265671,192.905350 
z"/>
<path fill="#6A65F2" opacity="1.000000" stroke="none" 
	d="
M205.473495,135.889526 
	C218.853714,139.219131 227.713776,147.609238 233.528458,160.658157 
	C228.507309,161.172180 224.184418,161.614716 219.375671,161.626129 
	C217.078781,157.965027 216.684906,153.289932 211.237427,153.749786 
	C210.914459,153.777054 210.535355,153.152283 210.184097,152.829056 
	C205.983383,148.963760 201.729416,145.153442 197.628220,141.185272 
	C196.818466,140.401794 196.060059,138.892548 196.269730,137.935196 
	C196.446182,137.129410 198.005478,136.249985 199.056381,136.091568 
	C201.157806,135.774780 203.330338,135.929504 205.473495,135.889526 
z"/>
<path fill="#6E57F1" opacity="1.000000" stroke="none" 
	d="
M205.136383,135.636780 
	C203.330338,135.929504 201.157806,135.774780 199.056381,136.091568 
	C198.005478,136.249985 196.446182,137.129410 196.269730,137.935196 
	C196.060059,138.892548 196.818466,140.401794 197.628220,141.185272 
	C201.729416,145.153442 205.983383,148.963760 210.184097,152.829056 
	C210.535355,153.152283 210.914459,153.777054 211.237427,153.749786 
	C216.684906,153.289932 217.078781,157.965027 218.940155,161.554504 
	C217.299179,161.301941 215.204483,161.127335 213.985229,160.003235 
	C208.229248,154.696487 202.023392,150.658813 193.092056,150.698059 
	C185.794220,149.969330 183.387650,144.715561 180.641205,139.991287 
	C180.207855,139.245895 180.909592,137.840637 181.086517,136.740463 
	C188.814148,133.200531 196.753143,133.355804 205.136383,135.636780 
z"/>
<path fill="#7743F0" opacity="1.000000" stroke="none" 
	d="
M172.303741,187.255127 
	C170.992783,185.503403 168.248840,183.195297 168.507355,181.295837 
	C169.590332,173.338806 164.382477,168.785019 160.020203,163.551682 
	C153.819733,167.910172 153.660919,174.461166 153.884003,181.625626 
	C151.311096,173.284302 153.464096,165.076736 157.255753,157.185730 
	C158.602509,154.382935 160.620636,151.902725 162.822754,149.272659 
	C166.041321,151.381821 168.769394,153.493591 171.497467,155.605362 
	C171.277466,155.880981 171.057480,156.156586 170.837494,156.432205 
	C173.247879,156.647186 175.658264,156.862167 178.068649,157.077133 
	C169.779114,165.774429 167.575043,175.659210 172.303741,187.255127 
z"/>
<path fill="#724CF3" opacity="1.000000" stroke="none" 
	d="
M178.387817,156.946671 
	C175.658264,156.862167 173.247879,156.647186 170.837494,156.432205 
	C171.057480,156.156586 171.277466,155.880981 171.497467,155.605362 
	C168.769394,153.493591 166.041321,151.381821 163.118118,149.102676 
	C167.453461,143.070648 173.282272,139.057327 180.695496,136.743073 
	C180.909592,137.840637 180.207855,139.245895 180.641205,139.991287 
	C183.387650,144.715561 185.794220,149.969330 192.660858,150.634247 
	C188.192108,152.856781 183.449554,154.836487 178.387817,156.946671 
z"/>
<path fill="#7743F0" opacity="1.000000" stroke="none" 
	d="
M153.586029,182.578003 
	C154.745911,185.601974 155.844482,189.031723 156.908676,192.889526 
	C155.757767,189.872986 154.641235,186.428375 153.586029,182.578003 
z"/>
<path fill="#7743F0" opacity="1.000000" stroke="none" 
	d="
M175.093414,191.623032 
	C174.763870,191.486343 174.409546,191.064850 174.028030,190.353958 
	C174.356766,190.489120 174.712708,190.913666 175.093414,191.623032 
z"/>
<path fill="#7743F0" opacity="1.000000" stroke="none" 
	d="
M173.897430,189.733093 
	C173.632690,189.855347 173.393463,189.644516 173.154114,189.115494 
	C173.334381,189.084366 173.590698,189.285278 173.897430,189.733093 
z"/>
<path fill="#7743F0" opacity="1.000000" stroke="none" 
	d="
M173.093002,188.651779 
	C172.863205,188.710480 172.589218,188.500519 172.275055,188.025726 
	C172.506195,187.968323 172.777496,188.175720 173.093002,188.651779 
z"/>
<path fill="#7743F0" opacity="1.000000" stroke="none" 
	d="
M176.140381,192.659058 
	C175.952271,192.736862 175.638870,192.568390 175.199036,192.158676 
	C175.386749,192.082550 175.700912,192.247665 176.140381,192.659058 
z"/>
<path fill="#6178F6" opacity="1.000000" stroke="none" 
	d="
M258.017639,195.097702 
	C260.317322,194.372131 262.591339,193.775757 264.878021,193.176056 
	C261.868652,188.786072 259.370514,185.141815 256.260345,180.604752 
	C261.644073,180.145096 266.092682,179.765274 270.712830,179.086731 
	C272.090973,176.356827 273.520996,174.008362 274.457489,171.477280 
	C276.395752,166.238754 278.289246,160.963348 279.777588,155.585876 
	C280.748474,152.078156 282.611816,150.185364 286.397736,150.185211 
	C284.760437,152.175171 282.910431,153.895142 280.046875,156.557449 
	C282.919586,156.847290 284.012543,156.957565 285.105499,157.067841 
	C283.133484,163.882767 281.161438,170.697678 278.965332,178.286865 
	C286.921295,178.286865 294.461884,178.286865 302.459442,178.286865 
	C300.288330,192.362228 298.758575,205.724701 302.333405,219.467804 
	C300.980164,215.581543 299.670105,211.239288 298.105621,206.990723 
	C297.576019,205.552536 296.677795,203.934631 295.463379,203.133942 
	C293.353119,201.742615 290.665192,201.284134 290.167877,198.042160 
	C290.068848,197.396561 287.924286,196.447815 287.015411,196.698624 
	C285.865112,197.016068 284.483765,198.262131 284.153595,199.386978 
	C283.607788,201.246536 283.823273,203.329544 283.428284,205.206085 
	C283.138611,202.083984 283.138611,199.074219 283.138611,195.910782 
	C279.057678,195.910782 275.828400,195.910782 272.265991,195.956360 
	C271.277588,196.988861 270.622284,197.975800 269.583923,198.979156 
	C268.125031,200.014297 266.719452,200.851151 266.037689,202.087219 
	C264.274109,205.284668 262.829773,208.658203 261.274078,211.593933 
	C262.884308,206.263092 264.478455,201.299759 266.193359,195.960388 
	C262.925751,195.773209 260.456482,195.631760 257.987213,195.490326 
	C257.987213,195.490326 257.991974,195.226913 258.017639,195.097702 
z"/>
<path fill="#56A6F1" opacity="1.000000" stroke="none" 
	d="
M285.080566,157.044281 
	C284.012543,156.957565 282.919586,156.847290 280.046875,156.557449 
	C282.910431,153.895142 284.760437,152.175171 286.782532,150.157822 
	C286.954681,149.860428 286.976959,149.916367 287.255859,149.923950 
	C288.025574,149.619308 288.516418,149.307053 289.007233,148.994797 
	C289.007233,148.994797 289.001221,149.002914 289.372864,148.997345 
	C290.812195,148.570831 291.879852,148.149918 292.947540,147.729004 
	C310.754395,141.639481 328.561249,135.549942 346.627777,129.371597 
	C347.425476,131.190582 348.072388,132.665665 349.056061,134.908722 
	C328.066956,141.921417 307.356018,148.841171 286.092316,156.016144 
	C285.286652,156.489044 285.112823,156.757889 285.018127,157.077911 
	C285.018127,157.077911 285.055603,157.020737 285.080566,157.044281 
z"/>
<path fill="#EFE0F3" opacity="1.000000" stroke="none" 
	d="
M264.811493,177.906250 
	C262.332367,178.258423 259.584381,178.296021 256.380188,178.272705 
	C258.796875,178.005081 261.669769,177.798370 264.811493,177.906250 
z"/>
<path fill="#6178F6" opacity="1.000000" stroke="none" 
	d="
M292.595398,147.790863 
	C291.879852,148.149918 290.812195,148.570831 289.367798,148.997803 
	C290.075134,148.620148 291.159210,148.236450 292.595398,147.790863 
z"/>
<path fill="#6178F6" opacity="1.000000" stroke="none" 
	d="
M288.705078,149.025421 
	C288.516418,149.307053 288.025574,149.619308 287.229614,149.938538 
	C287.417297,149.649048 287.910095,149.352554 288.705078,149.025421 
z"/>
<path fill="#6178F6" opacity="1.000000" stroke="none" 
	d="
M285.244141,156.974060 
	C285.112823,156.757889 285.286652,156.489044 285.746399,156.146088 
	C285.893036,156.361267 285.732025,156.644394 285.244141,156.974060 
z"/>
<path fill="#EDE7F4" opacity="1.000000" stroke="none" 
	d="
M257.522278,195.540710 
	C260.456482,195.631760 262.925751,195.773209 266.193359,195.960388 
	C264.478455,201.299759 262.884308,206.263092 261.087219,211.925140 
	C259.534912,217.018478 258.185608,221.413071 256.813995,225.812897 
	C256.791718,225.818115 256.747864,225.832260 256.513611,226.103958 
	C253.397293,234.027039 253.397293,234.028351 245.311951,234.025131 
	C239.339767,234.022736 233.367599,234.014832 227.395416,234.012177 
	C222.329514,234.009933 217.263596,234.011719 211.941956,234.011719 
	C212.159943,231.980392 212.299316,230.681778 212.438690,229.383148 
	C212.438690,229.383148 212.475281,229.261841 212.685974,228.999969 
	C213.239273,227.501770 213.581894,226.265442 213.924515,225.029129 
	C213.924515,225.029129 214.129013,224.649658 214.350433,224.116791 
	C215.326828,219.402832 216.081787,215.221725 216.836731,211.040619 
	C216.944031,206.384384 217.051300,201.728165 217.131592,196.624069 
	C228.281891,196.002914 239.459152,195.827866 250.636490,195.657898 
	C252.776611,195.625351 254.917053,195.612854 257.522278,195.540710 
M219.487946,215.909409 
	C218.362549,220.849274 217.237167,225.789154 216.048981,231.004639 
	C227.069931,231.004639 237.694458,231.062714 248.316467,230.925766 
	C249.543304,230.909958 251.537201,230.082260 251.855560,229.170227 
	C255.319901,219.245743 258.520813,209.229279 261.814453,199.173813 
	C247.984039,199.173813 234.586456,199.173813 221.189758,199.173813 
	C220.739182,204.665756 220.310608,209.889328 219.487946,215.909409 
z"/>
<path fill="#6E57F1" opacity="1.000000" stroke="none" 
	d="
M212.081085,229.436890 
	C212.299316,230.681778 212.159943,231.980392 211.941956,234.011719 
	C217.263596,234.011719 222.329514,234.009933 227.395416,234.012177 
	C233.367599,234.014832 239.339767,234.022736 245.311951,234.025131 
	C253.397293,234.028351 253.397293,234.027039 256.591187,226.521774 
	C256.598694,229.439606 256.294403,232.211319 255.990082,234.983032 
	C248.643021,235.316284 241.295975,235.649536 233.482269,235.985901 
	C226.936356,235.979263 220.852219,236.114548 214.779419,235.911270 
	C210.373276,235.763763 209.440994,233.575073 212.081085,229.436890 
z"/>
<path fill="#6E57F1" opacity="1.000000" stroke="none" 
	d="
M216.580200,211.189682 
	C216.081787,215.221725 215.326828,219.402832 214.354187,223.901306 
	C214.099030,221.118271 214.061554,218.017883 214.031769,214.458893 
	C214.800858,213.113129 215.562271,212.225937 216.580200,211.189682 
z"/>
<path fill="#6E57F1" opacity="1.000000" stroke="none" 
	d="
M213.572235,225.110138 
	C213.581894,226.265442 213.239273,227.501770 212.659363,228.942474 
	C212.688034,227.828278 212.954010,226.509720 213.572235,225.110138 
z"/>
<path fill="#724CF3" opacity="1.000000" stroke="none" 
	d="
M256.215973,235.157166 
	C256.294403,232.211319 256.598694,229.439606 256.825439,226.250076 
	C256.747864,225.832260 256.791718,225.818115 257.197662,225.919144 
	C258.445862,228.048004 259.288147,230.075836 260.174927,232.117004 
	C260.219452,232.130356 260.251892,232.217453 260.251892,232.217453 
	C260.079773,233.272888 259.907684,234.328308 259.869812,235.684784 
	C258.792206,235.900833 257.113586,238.356033 256.215973,235.157166 
z"/>
<path fill="#EDE7F4" opacity="1.000000" stroke="none" 
	d="
M272.599091,195.910782 
	C275.828400,195.910782 279.057678,195.910782 283.138611,195.910782 
	C283.138611,199.074219 283.138611,202.083984 283.228577,205.546402 
	C283.306366,206.800537 283.294250,207.602020 283.316132,209.082489 
	C283.553680,210.515015 283.757233,211.268570 283.960785,212.022110 
	C285.604095,219.082230 287.247406,226.142365 288.896362,233.580460 
	C280.570557,233.981934 272.238770,234.046860 263.908051,233.981827 
	C262.730957,233.972626 261.558838,233.329773 260.318146,232.598831 
	C260.251892,232.217453 260.219452,232.130356 260.442627,231.872650 
	C262.445953,226.077438 264.226105,220.539932 266.242859,214.736847 
	C268.519348,208.284424 270.559235,202.097610 272.599091,195.910782 
M267.959564,220.433380 
	C266.733307,223.886703 265.507050,227.340027 264.233429,230.926697 
	C271.208862,230.926697 277.864807,230.926697 283.811920,230.926697 
	C282.202240,220.394135 280.588104,209.832535 278.936279,199.024277 
	C276.214081,198.455261 274.456848,199.024200 273.636261,203.238739 
	C272.543671,208.849823 269.955200,214.169662 267.959564,220.433380 
z"/>
<path fill="#6178F6" opacity="1.000000" stroke="none" 
	d="
M283.974091,211.724731 
	C283.757233,211.268570 283.553680,210.515015 283.422852,209.470032 
	C283.659454,209.928192 283.823425,210.677780 283.974091,211.724731 
z"/>
<path fill="#6E57F1" opacity="1.000000" stroke="none" 
	d="
M266.006287,215.002426 
	C264.226105,220.539932 262.445953,226.077438 260.398102,231.859314 
	C259.288147,230.075836 258.445862,228.048004 257.219940,225.913925 
	C258.185608,221.413071 259.534912,217.018478 261.071106,212.292648 
	C262.829773,208.658203 264.274109,205.284668 266.037689,202.087219 
	C266.719452,200.851151 268.125031,200.014297 269.586365,199.362823 
	C269.554840,200.784073 269.005981,201.806427 268.744415,202.897675 
	C267.780182,206.920258 266.911133,210.965637 266.006287,215.002426 
z"/>
<path fill="#6A65F2" opacity="1.000000" stroke="none" 
	d="
M266.242859,214.736847 
	C266.911133,210.965637 267.780182,206.920258 268.744415,202.897675 
	C269.005981,201.806427 269.554840,200.784073 269.969421,199.346405 
	C270.622284,197.975800 271.277588,196.988861 272.265991,195.956360 
	C270.559235,202.097610 268.519348,208.284424 266.242859,214.736847 
z"/>
<path fill="#000000" opacity="1.000000" stroke="none" 
	d="
M219.684998,215.511169 
	C220.310608,209.889328 220.739182,204.665756 221.189758,199.173813 
	C234.586456,199.173813 247.984039,199.173813 261.814453,199.173813 
	C258.520813,209.229279 255.319901,219.245743 251.855560,229.170227 
	C251.537201,230.082260 249.543304,230.909958 248.316467,230.925766 
	C237.694458,231.062714 227.069931,231.004639 216.048981,231.004639 
	C217.237167,225.789154 218.362549,220.849274 219.684998,215.511169 
z"/>
<path fill="#000000" opacity="1.000000" stroke="none" 
	d="
M267.984436,220.023987 
	C269.955200,214.169662 272.543671,208.849823 273.636261,203.238739 
	C274.456848,199.024200 276.214081,198.455261 278.936279,199.024277 
	C280.588104,209.832535 282.202240,220.394135 283.811920,230.926697 
	C277.864807,230.926697 271.208862,230.926697 264.233429,230.926697 
	C265.507050,227.340027 266.733307,223.886703 267.984436,220.023987 
z"/>
</svg>