<svg version="1.1" id="Layer_1" xmlns="http://www.w3.org/2000/svg" xmlns:xlink="http://www.w3.org/1999/xlink" x="0px" y="0px"
	 width="100%" viewBox="0 0 450 450" enable-background="new 0 0 450 450" xml:space="preserve">
<path fill="#000001" opacity="1.000000" stroke="none" 
	d="
M313.000000,451.000000 
	C210.028458,451.000000 107.556885,450.982086 5.085436,451.082306 
	C1.848853,451.085480 0.892162,450.686890 0.895155,447.087494 
	C1.017758,299.628540 1.012897,152.169449 0.915062,4.710461 
	C0.912926,1.492193 1.758982,0.927557 4.787552,0.929218 
	C152.246567,1.010130 299.705627,1.008473 447.164642,0.938513 
	C450.078705,0.937131 451.095367,1.325927 451.092957,4.662671 
	C450.985413,152.288269 450.986969,299.913971 451.089478,447.539581 
	C451.091614,450.629791 450.335907,451.081177 447.462128,451.074341 
	C402.808258,450.968079 358.154114,451.000000 313.000000,451.000000 
z"/>
<path fill="#6246EE" opacity="1.000000" stroke="none" 
	d="
M209.398956,321.715698 
	C210.872742,313.178558 212.608826,305.298645 212.881958,297.157959 
	C212.975449,294.370758 212.405640,292.135529 210.475922,289.905792 
	C204.181290,282.632507 205.702072,274.449097 214.015854,269.406494 
	C217.540451,267.268738 218.406113,259.087860 215.418854,256.147400 
	C209.835083,250.651093 209.695480,249.758102 214.723541,244.017288 
	C216.248947,242.275650 215.490250,241.828781 214.165787,240.640060 
	C205.259079,232.646225 205.557327,226.012726 214.995789,218.581436 
	C220.962509,213.883606 220.917709,207.822098 214.879852,202.890533 
	C206.219894,195.817291 205.708237,186.889740 214.220123,179.746796 
	C217.878510,176.676773 218.484421,173.629105 217.774994,169.392807 
	C216.009506,158.850174 212.970810,148.709946 208.803375,138.505920 
	C215.381149,135.782104 222.163391,137.101837 228.835709,137.354752 
	C231.510986,137.456146 233.926590,145.139267 231.720963,148.239288 
	C228.783005,152.368637 229.112137,157.062592 228.331421,161.408524 
	C227.450989,166.309677 224.935623,171.201462 226.892181,176.683411 
	C227.189331,176.926971 227.648758,177.020325 227.818924,177.181549 
	C228.534714,177.630127 228.494278,178.294449 229.131500,178.758484 
	C229.402649,178.819702 229.146912,178.871506 229.122009,178.743439 
	C229.200897,179.084763 229.437302,179.473465 230.156448,179.750122 
	C230.506470,179.718796 230.390778,179.666138 230.419449,179.609406 
	C232.822235,186.173370 230.628220,193.020294 231.392105,199.733521 
	C231.536407,201.001755 230.047058,201.946152 229.098862,202.873032 
	C223.835403,208.018051 223.912872,214.019119 229.309723,218.881256 
	C230.064835,219.561554 230.647354,220.358124 230.852646,221.747101 
	C230.784790,223.409119 231.300568,224.769012 230.922653,225.988968 
	C229.837494,229.492081 231.586594,231.512177 234.498596,233.445007 
	C235.003845,237.026642 232.394424,238.473633 230.253510,240.631561 
	C229.960068,240.867538 229.915359,240.973068 229.862717,240.950424 
	C228.046295,243.078613 229.162216,245.431854 230.502380,246.677155 
	C234.383469,250.283508 232.858475,252.807343 229.545135,255.383682 
	C229.167007,255.677719 228.971924,256.170746 228.600174,256.927307 
	C227.802338,258.612183 228.066391,260.074188 228.000214,261.871765 
	C227.998917,269.832672 227.893860,277.427460 230.069077,284.826141 
	C230.441193,286.091827 230.327469,287.465851 230.044235,288.762787 
	C229.211472,292.576172 229.336304,296.289764 230.879028,299.931488 
	C231.822601,302.158875 231.353622,304.436249 230.809601,307.074646 
	C230.431046,310.124817 230.497238,312.829041 229.881256,315.893494 
	C229.473557,322.959198 228.590744,329.553986 228.144760,336.186829 
	C228.020905,338.028870 227.963547,339.882751 228.525635,341.633789 
	C231.289307,350.243500 230.467834,359.100800 230.308182,367.888062 
	C230.201508,373.759247 227.839294,375.849945 221.938721,375.983337 
	C219.612198,376.035950 217.280945,376.073486 214.528366,375.800354 
	C212.404327,374.664185 212.186951,373.073456 212.629013,371.365631 
	C213.659973,367.382568 213.084824,363.502136 212.122070,359.610107 
	C211.517776,357.167084 211.683456,354.702118 212.072510,352.224579 
	C213.476852,343.281708 211.417145,334.448273 211.129761,325.557251 
	C211.093445,324.433502 210.728806,323.271454 209.398956,321.715698 
z"/>
<path fill="#6246E7" opacity="1.000000" stroke="none" 
	d="
M214.105499,102.087677 
	C213.071045,96.602875 212.478104,91.697319 214.029388,86.471054 
	C215.015305,83.149490 214.868179,79.322884 211.451767,76.453423 
	C209.178528,74.544090 209.870163,72.071793 211.725769,69.828133 
	C215.002487,65.866165 214.689957,64.083984 210.367493,61.151672 
	C208.718781,60.033207 206.569763,59.231541 207.306427,56.669666 
	C208.068192,54.020523 210.359818,54.027809 212.593079,54.022114 
	C219.253296,54.005135 225.913361,53.934425 232.573578,53.907284 
	C234.689880,53.898659 236.584839,54.284401 237.120743,56.810310 
	C237.608795,59.110680 236.131027,59.957447 234.445465,60.972481 
	C229.665237,63.851097 229.296448,65.799255 232.738907,69.817238 
	C234.857132,72.289597 234.952042,74.780205 232.722137,76.913017 
	C228.912552,80.556747 229.553024,84.984016 231.032425,88.901283 
	C233.258148,94.794754 229.385513,99.966492 230.030869,105.558456 
	C230.139999,106.504105 229.167953,106.882469 228.260742,106.877388 
	C224.265915,106.855003 220.265839,106.928101 216.278259,106.740891 
	C213.404785,106.605972 214.415390,104.154274 214.105499,102.087677 
z"/>
<path fill="#6942E7" opacity="1.000000" stroke="none" 
	d="
M228.266846,307.227844 
	C229.215240,304.334503 230.031113,301.791382 227.936829,299.065277 
	C227.211823,298.121552 227.053162,296.544281 227.071198,295.262512 
	C227.149185,289.712219 227.382202,284.409210 225.718002,278.732513 
	C224.329941,273.997742 226.441864,268.236938 227.012680,262.530792 
	C230.177383,262.828705 227.756897,265.241211 228.179077,266.975098 
	C228.120514,267.491547 228.310532,267.735931 228.730927,268.383423 
	C231.437958,270.153076 233.919373,271.369202 236.811584,268.854126 
	C237.109512,268.682220 237.269333,268.303284 237.455750,268.216492 
	C241.906570,266.134094 243.210007,266.857758 244.242981,272.285156 
	C240.615997,275.340485 237.443771,278.085602 237.955780,283.146362 
	C238.075790,284.332581 237.497192,285.977386 236.649902,286.812500 
	C229.533112,293.826874 232.880112,302.317505 233.368744,310.275299 
	C233.922943,319.301086 238.126404,325.545258 247.948120,326.622406 
	C249.729172,326.817749 251.446503,327.594055 253.485153,328.357208 
	C253.051437,330.644562 251.428879,330.999390 249.159119,330.788208 
	C244.833679,327.392120 240.582016,329.442535 236.420044,329.976166 
	C235.689728,330.069824 234.840286,330.618896 235.110413,331.163574 
	C237.127686,335.231384 233.615784,339.201050 235.534882,343.680878 
	C237.799301,348.966797 236.388718,355.140259 236.358994,360.921448 
	C236.336014,365.391449 235.853928,369.813110 241.166138,372.138641 
	C239.526352,374.471649 237.009109,374.770294 234.521057,375.856262 
	C227.297180,377.173096 220.407791,376.313721 213.216507,376.030914 
	C212.968979,375.422821 213.043823,375.131134 213.567780,374.887451 
	C228.002289,375.173370 227.934418,375.172882 228.030762,361.413483 
	C228.079681,354.424652 228.109344,347.486816 225.523987,340.822571 
	C224.435486,338.016815 225.809128,335.253113 226.015350,332.473480 
	C226.430496,326.877808 227.071838,321.298920 227.813690,315.353333 
	C230.624954,312.646332 230.883667,310.145813 228.266846,307.227844 
z"/>
<path fill="#4355D9" opacity="1.000000" stroke="none" 
	d="
M204.609833,295.420776 
	C207.059891,296.360931 208.693222,297.799011 207.230911,300.031799 
	C205.917084,302.037872 204.296112,299.966064 202.946457,299.404144 
	C196.163849,296.580200 189.824188,292.911926 183.916321,288.574890 
	C166.618103,275.875885 161.484970,259.520538 168.211960,238.861832 
	C173.978455,221.152817 185.369370,207.556747 199.729355,196.203796 
	C200.656937,195.470459 201.777328,193.202988 203.347641,194.969940 
	C205.077316,196.916229 203.848511,198.579498 202.049713,199.954468 
	C192.841248,206.993210 185.176987,215.456879 179.168289,225.359512 
	C175.530411,231.354889 172.653015,237.741470 171.232086,244.643570 
	C167.168274,264.383575 173.730438,278.295410 191.982941,288.746643 
	C196.014084,291.054840 200.190079,293.110107 204.609833,295.420776 
z"/>
<path fill="#8F2BC8" opacity="1.000000" stroke="none" 
	d="
M287.392273,324.764038 
	C301.166107,329.647186 314.098389,335.173065 323.338745,346.617523 
	C332.051208,357.408142 329.638367,371.857422 318.750031,380.363373 
	C309.096893,387.904449 297.865295,389.175140 286.468475,390.219818 
	C281.517365,390.673706 276.492096,390.317047 271.500488,390.332092 
	C269.845032,390.337097 268.460999,390.016449 268.555786,387.908081 
	C268.646942,385.879791 269.956299,385.638794 271.648895,385.605408 
	C279.131195,385.457764 286.660065,385.672455 294.079926,384.886230 
	C302.507721,383.993195 310.748535,382.019897 317.295929,375.882507 
	C325.158478,368.512360 326.218567,357.668396 319.613129,349.128601 
	C312.513031,339.949341 302.132538,335.656677 292.012054,331.037628 
	C289.600891,329.937164 287.078705,329.080017 284.322693,327.895874 
	C283.113770,324.798767 284.505127,324.120880 287.392273,324.764038 
z"/>
<path fill="#7B38E7" opacity="1.000000" stroke="none" 
	d="
M247.655518,328.243896 
	C249.639832,328.236450 251.288849,328.472778 253.357483,328.660706 
	C268.960236,332.028595 273.193481,344.101013 263.374786,356.110596 
	C258.243073,362.387360 251.703079,366.921143 244.351105,370.887573 
	C241.386841,366.210754 241.814117,361.012787 242.110443,355.990753 
	C242.531891,348.848450 243.205383,341.773712 241.420685,334.699280 
	C240.409424,330.690674 242.109787,329.041962 247.655518,328.243896 
z"/>
<path fill="#8F2BC8" opacity="1.000000" stroke="none" 
	d="
M270.792877,243.135590 
	C276.926819,236.875504 283.530212,231.435638 288.725464,224.879868 
	C297.034790,214.394501 302.863373,202.522293 298.683319,188.642838 
	C295.673950,178.650620 287.648590,174.096832 277.624237,173.064148 
	C274.005341,172.691330 270.319214,172.970993 266.184570,172.921631 
	C263.369324,173.869797 260.909851,174.007431 258.437378,173.827499 
	C257.353607,173.748596 256.578613,173.087784 256.659668,171.862122 
	C256.723114,170.901703 257.411743,170.379761 258.263184,170.232834 
	C260.221741,169.894882 262.247986,169.975494 264.596252,169.202942 
	C265.041382,169.124039 265.116241,169.034821 265.160706,169.072418 
	C269.062500,167.784500 273.026184,168.778915 277.310974,168.833740 
	C295.644958,169.502579 308.193512,186.605270 303.956329,204.049759 
	C300.219421,219.434784 290.240326,230.319687 279.399994,240.776901 
	C277.845764,242.276215 276.158295,243.637375 274.244019,245.154816 
	C272.394257,245.490128 271.061584,245.308929 270.792877,243.135590 
z"/>
<path fill="#713EEE" opacity="1.000000" stroke="none" 
	d="
M247.644135,327.922028 
	C244.502548,330.367523 243.921051,332.893829 244.472748,337.551941 
	C245.249176,344.107880 246.512299,350.977692 244.451004,357.903961 
	C243.342529,361.628632 245.813889,366.048523 244.094040,370.539764 
	C244.006424,370.933441 243.811508,371.189148 243.651443,371.174225 
	C242.765015,371.306580 242.046188,371.480225 241.250824,372.121887 
	C241.141632,372.475555 241.079391,372.443787 241.108856,372.466064 
	C238.260056,370.813354 234.892960,375.673157 233.010132,372.665344 
	C231.893738,370.881927 233.828659,367.362213 233.928787,364.606384 
	C234.121719,359.296692 233.977921,353.975067 233.991211,348.658417 
	C233.996277,346.632416 233.766876,344.707611 232.513199,342.984344 
	C231.942932,342.200500 231.047043,340.905457 231.322937,340.373688 
	C233.337830,336.490387 232.350555,332.811157 231.308105,328.939209 
	C230.897583,327.414368 232.499634,325.956573 234.183380,326.316376 
	C238.520432,327.243134 243.145340,325.551697 247.644135,327.922028 
z"/>
<path fill="#743BCD" opacity="1.000000" stroke="none" 
	d="
M207.440765,382.479431 
	C221.873322,382.006775 236.506332,381.916962 251.139145,381.802673 
	C254.092545,381.779633 256.890106,381.902618 259.551392,379.692291 
	C262.252899,377.448578 264.339478,379.058136 264.575653,382.289825 
	C264.853882,386.096710 264.916016,389.950165 264.662628,393.756195 
	C264.421844,397.373077 262.026550,398.549408 259.226837,396.256836 
	C257.038269,394.464722 254.835953,394.242889 252.314392,394.240723 
	C237.507385,394.227875 222.700409,394.173248 207.507782,394.053680 
	C209.849579,390.153137 213.890991,392.286713 217.752350,391.675659 
	C223.040268,391.239807 227.936493,392.016907 233.141281,391.179810 
	C235.888153,389.655792 238.591812,389.816040 241.211243,389.513367 
	C242.324966,389.384674 243.819489,389.404816 243.819702,387.866821 
	C243.819870,386.656036 242.502106,386.506165 241.533218,386.451630 
	C238.868927,386.301605 236.424988,384.957336 233.348068,385.083069 
	C230.286835,385.474365 227.584488,385.424255 224.465424,385.386810 
	C218.627518,384.222870 212.865341,385.285370 207.440765,382.479431 
z"/>
<path fill="#544CE3" opacity="1.000000" stroke="none" 
	d="
M218.171112,393.325470 
	C214.539108,393.710693 211.124680,393.837097 207.416199,393.969055 
	C203.762665,396.823547 200.685501,399.822754 196.486984,394.599854 
	C195.480362,393.347656 192.062134,394.033997 189.368973,393.663818 
	C187.867737,391.317871 189.344101,390.347748 190.986298,390.014740 
	C194.857681,389.229584 195.099091,387.533325 192.715759,384.777039 
	C192.290390,384.285156 192.366135,383.548218 192.758957,382.634308 
	C194.405350,381.999725 196.446335,382.096497 197.141418,381.176453 
	C200.686462,376.483948 203.480835,378.763519 206.801178,381.934082 
	C212.571259,382.326294 217.938217,381.482300 223.600830,382.831238 
	C220.817352,385.650909 219.202881,389.136780 218.171112,393.325470 
z"/>
<path fill="#4A55F5" opacity="1.000000" stroke="none" 
	d="
M192.586212,382.291382 
	C194.129852,384.514893 197.670975,383.699921 198.159393,386.995667 
	C198.628067,390.157990 198.559082,392.166382 194.634720,392.023438 
	C192.879288,391.959534 191.007858,391.714630 189.220352,393.232666 
	C185.264771,393.396759 181.544617,393.294739 177.394135,393.083801 
	C174.452744,394.400177 172.112061,393.016785 169.354736,392.647705 
	C168.258301,392.783081 167.523804,392.806122 166.427887,392.759216 
	C164.162827,389.850311 161.306686,387.524658 161.564682,383.639221 
	C163.982971,383.432190 166.060959,383.290100 168.582352,383.208496 
	C170.488266,383.688354 171.974884,383.470001 173.732971,383.281433 
	C174.853241,383.062103 175.695038,382.997772 176.955933,382.996460 
	C179.269699,381.993103 181.315674,382.676819 183.681839,382.736755 
	C186.777298,382.687317 189.482300,382.449066 192.586212,382.291382 
z"/>
<path fill="#544CE3" opacity="1.000000" stroke="none" 
	d="
M214.424347,133.249054 
	C213.582642,133.108047 213.077042,133.159286 212.196701,133.130341 
	C207.290359,134.028214 202.709122,133.291290 197.738998,133.249924 
	C190.669464,132.696533 189.151550,126.297638 184.792374,123.240311 
	C184.922394,122.793846 185.052399,122.347389 185.182419,121.900925 
	C193.823151,121.900925 202.463882,121.900925 211.561691,122.017822 
	C216.783859,123.690346 216.661728,128.494965 218.445740,132.326859 
	C217.346832,133.897980 215.999100,133.409195 214.424347,133.249054 
z"/>
<path fill="#743BCD" opacity="1.000000" stroke="none" 
	d="
M287.501343,324.789185 
	C286.236725,325.122772 284.835571,325.429382 284.140320,327.385559 
	C270.152252,323.215576 256.264526,318.756989 242.385895,314.270294 
	C241.450836,313.968018 240.528580,313.541626 239.699524,313.016449 
	C238.568420,312.299927 238.402222,310.979736 238.673004,309.909424 
	C239.109619,308.183746 240.519135,308.942200 241.534927,309.277771 
	C256.794952,314.319336 272.334503,318.527344 287.501343,324.789185 
z"/>
<path fill="#6246EE" opacity="1.000000" stroke="none" 
	d="
M218.401291,132.308411 
	C212.638565,131.099991 214.402802,125.684036 212.134842,122.419754 
	C216.648209,120.742317 214.332092,116.346550 215.883148,113.187584 
	C219.919586,110.494888 223.945099,111.254166 228.216614,112.613068 
	C228.598648,113.420280 228.746262,113.876045 228.844574,114.696320 
	C228.148895,116.254906 228.988892,117.371346 228.994781,118.893814 
	C228.358276,122.191963 228.391998,124.958527 230.086395,127.683731 
	C231.247131,129.550598 230.895432,131.487366 228.438080,132.860046 
	C224.940552,132.876541 221.814438,133.397003 218.401291,132.308411 
z"/>
<path fill="#6246E7" opacity="1.000000" stroke="none" 
	d="
M229.255676,223.207962 
	C228.968124,221.167770 227.911896,220.008423 226.782974,218.712723 
	C223.215836,214.618637 223.953217,205.554489 228.084457,202.113876 
	C229.870651,200.626297 229.394669,198.904236 229.117584,197.120148 
	C228.240295,191.471481 228.732880,185.914368 230.328094,179.986542 
	C239.190796,186.905533 239.056274,195.631027 230.087250,202.958344 
	C223.703903,208.173309 223.758057,213.410461 230.249573,218.646698 
	C239.557755,226.154938 239.674194,233.186676 230.287781,240.807800 
	C230.431686,238.295074 233.137650,237.108368 233.896057,234.334229 
	C232.309799,230.567551 232.704041,226.246078 229.255676,223.207962 
z"/>
<path fill="#743BCD" opacity="1.000000" stroke="none" 
	d="
M228.256012,119.247406 
	C228.210526,117.849960 228.343246,116.746597 228.635620,115.352020 
	C229.126709,120.694969 232.127945,122.306366 237.593674,121.933540 
	C244.682144,121.450020 251.831848,121.857506 258.954926,121.912285 
	C259.226959,121.914383 259.496521,122.237846 259.909973,122.503174 
	C255.062057,129.304749 249.954666,134.647125 240.191437,133.483292 
	C231.851700,132.489120 223.300873,133.265671 214.465820,133.157898 
	C215.208115,132.829941 216.328018,132.603073 217.754852,132.209976 
	C221.409866,132.041763 224.757919,132.039795 228.564911,132.029694 
	C230.196259,130.448456 231.777100,129.766602 233.722092,129.589783 
	C235.482864,129.429688 237.978195,129.495941 237.874237,127.073708 
	C237.776535,124.797203 235.314316,125.486557 233.806396,125.364487 
	C230.137695,125.067497 227.626923,123.885094 228.256012,119.247406 
z"/>
<path fill="#743BCD" opacity="1.000000" stroke="none" 
	d="
M270.634308,242.951691 
	C271.842804,243.482224 272.730316,244.148361 273.786682,245.030838 
	C266.298676,253.159363 257.320007,259.519501 248.870544,266.496307 
	C246.872498,268.146118 245.346588,269.902100 244.310333,272.501526 
	C242.277267,270.951111 241.130371,268.463837 237.959625,268.144318 
	C249.856735,261.509827 259.677338,251.766693 270.634308,242.951691 
z"/>
<path fill="#6246E7" opacity="1.000000" stroke="none" 
	d="
M227.114136,176.572479 
	C224.073044,175.458694 225.111481,172.820648 225.410629,170.438766 
	C226.321854,163.183136 229.609711,156.083084 226.034912,148.572311 
	C224.970810,146.336563 226.107712,145.920578 230.404709,147.599930 
	C229.974991,139.130417 228.900650,138.006851 221.167389,138.011749 
	C217.362335,138.014160 213.557327,138.052673 209.271759,138.101608 
	C208.401749,136.311508 209.853592,136.866913 210.600342,136.862411 
	C218.257507,136.816299 225.916306,136.920731 233.572037,136.807098 
	C237.085587,136.754959 236.916580,138.090210 235.668762,140.658783 
	C231.195145,149.867462 229.101334,159.803757 227.224762,169.773834 
	C226.832184,171.859650 227.084061,174.066757 227.114136,176.572479 
z"/>
<path fill="#4355D9" opacity="1.000000" stroke="none" 
	d="
M198.177887,368.936829 
	C190.335861,365.581909 184.213531,360.243378 179.586334,353.423584 
	C173.079453,343.833405 176.047531,334.245911 186.784775,329.872955 
	C191.381561,328.000793 196.247391,326.764435 201.036591,325.399200 
	C203.814117,324.607361 206.382065,323.584198 208.637054,321.202820 
	C208.936935,321.034088 209.143143,321.048157 209.238113,321.088928 
	C210.912399,323.776581 209.401886,325.464874 207.403381,326.820587 
	C205.375122,328.196503 203.116379,329.149597 200.294098,329.642548 
	C198.344376,329.726135 197.061966,330.271057 196.036652,331.537811 
	C194.487839,333.451355 192.341324,334.016357 189.958572,334.451935 
	C180.587540,336.164795 178.477036,343.283325 184.025101,350.965454 
	C187.766891,356.146515 192.191177,360.270081 197.151764,364.030975 
	C198.294312,364.897186 198.940720,365.949432 198.895554,367.738647 
	C198.713577,368.308289 198.596451,368.520691 198.177887,368.936829 
z"/>
<path fill="#743BCD" opacity="1.000000" stroke="none" 
	d="
M264.706207,169.056946 
	C263.258820,171.067444 260.477814,170.640427 257.600769,171.963837 
	C260.387695,173.440796 262.700623,172.715851 265.291748,172.890045 
	C257.277222,174.500946 248.789566,175.856033 240.675690,178.802673 
	C238.791626,179.486893 236.781189,179.558411 236.157074,177.314087 
	C235.436417,174.722519 238.050537,175.252121 239.340591,174.740280 
	C247.384598,171.548691 255.811661,169.968903 264.706207,169.056946 
z"/>
<path fill="#4355D9" opacity="1.000000" stroke="none" 
	d="
M161.487640,383.467896 
	C165.251984,385.385132 168.370132,387.311554 166.098236,392.316162 
	C163.751663,392.699860 161.432877,392.800232 159.122940,392.699036 
	C156.037430,392.563904 152.522644,393.725403 152.558044,388.098572 
	C152.592239,382.663330 155.854614,383.439178 159.081390,383.340546 
	C159.743530,383.320282 160.407288,383.353180 161.487640,383.467896 
z"/>
<path fill="#6246E7" opacity="1.000000" stroke="none" 
	d="
M228.475754,256.703918 
	C228.116074,255.526398 228.572113,254.500275 229.531204,253.728683 
	C231.638794,252.033157 231.630325,250.966980 229.039551,249.445175 
	C226.241959,247.801865 226.554535,242.766495 229.490768,240.964508 
	C228.762390,241.996765 229.212082,242.779922 230.081573,243.796219 
	C235.385284,249.995255 235.202866,251.733643 228.475754,256.703918 
z"/>
<path fill="#4355D9" opacity="1.000000" stroke="none" 
	d="
M212.819534,374.644897 
	C219.673965,376.730286 226.544907,375.445404 233.741074,375.863037 
	C221.741821,376.371399 209.046677,378.600861 198.079956,369.404694 
	C197.876450,369.140564 198.063171,368.940430 198.156693,368.840515 
	C199.326462,367.713501 200.526367,367.665588 202.154312,368.450287 
	C205.785889,370.711700 209.925461,371.284302 212.819534,374.644897 
z"/>
<path fill="#743BCD" opacity="1.000000" stroke="none" 
	d="
M228.473206,112.650421 
	C224.604919,111.633369 220.720474,111.525810 216.418518,112.709328 
	C218.287598,110.101906 225.183746,109.834656 228.473206,112.650421 
z"/>
<path fill="#743BCD" opacity="1.000000" stroke="none" 
	d="
M227.808075,257.072937 
	C228.004547,256.728577 228.162048,256.838135 228.226807,256.908783 
	C228.231262,260.154846 228.170944,263.330231 228.020538,266.876404 
	C227.725723,265.721313 227.520966,264.195496 227.168945,262.400330 
	C227.218323,260.559814 227.414963,258.988556 227.808075,257.072937 
z"/>
<path fill="#743BCD" opacity="1.000000" stroke="none" 
	d="
M197.673538,133.168701 
	C201.864029,133.033310 206.403748,133.012665 211.382721,133.021072 
	C207.222229,133.127899 202.622498,133.205673 197.673538,133.168701 
z"/>
<path fill="#743BCD" opacity="1.000000" stroke="none" 
	d="
M236.777405,268.777374 
	C234.771851,272.207184 232.102768,271.372589 229.149414,269.029816 
	C231.450684,269.274841 233.917038,271.769867 236.777405,268.777374 
z"/>
<path fill="#743BCD" opacity="1.000000" stroke="none" 
	d="
M277.326721,168.983047 
	C273.825317,169.102753 269.963593,169.110580 265.653503,169.114227 
	C269.115082,168.514526 273.038483,168.582520 277.326721,168.983047 
z"/>
<path fill="#4355D9" opacity="1.000000" stroke="none" 
	d="
M169.343506,392.893799 
	C171.404495,391.635773 173.794617,392.966858 176.580719,392.899139 
	C174.540588,392.992493 172.117386,393.010010 169.343506,392.893799 
z"/>
<path fill="#544CE3" opacity="1.000000" stroke="none" 
	d="
M183.745117,382.814484 
	C182.111877,382.992188 180.151459,383.058777 177.783035,383.092407 
	C179.389328,382.940735 181.403656,382.822052 183.745117,382.814484 
z"/>
<path fill="#4355D9" opacity="1.000000" stroke="none" 
	d="
M173.600571,383.035156 
	C172.622620,384.045898 171.151001,384.160980 169.316742,383.424316 
	C170.413742,383.160614 171.801727,383.052277 173.600571,383.035156 
z"/>
<path fill="#6942E7" opacity="1.000000" stroke="none" 
	d="
M241.491089,372.423004 
	C241.698425,372.080322 242.255219,371.685089 243.151703,371.224548 
	C242.941101,371.563019 242.390839,371.966736 241.491089,372.423004 
z"/>
<path fill="#6246E7" opacity="1.000000" stroke="none" 
	d="
M229.320175,178.557892 
	C229.006226,178.485626 228.609802,178.151535 228.101227,177.580109 
	C228.405289,177.660553 228.821503,177.978317 229.320175,178.557892 
z"/>
<path fill="#6246E7" opacity="1.000000" stroke="none" 
	d="
M230.361984,179.436447 
	C230.172241,179.500000 229.837997,179.281189 229.300446,178.838882 
	C229.470566,178.794952 229.844040,178.974533 230.361984,179.436447 
z"/>
<path fill="#584CF0" opacity="1.000000" stroke="none" 
	d="
M213.201340,374.984222 
	C208.776413,375.026306 205.503845,372.923798 202.082764,370.363098 
	C200.783127,363.815948 198.215424,357.834442 199.339966,351.094421 
	C200.118622,346.427368 199.898621,341.569061 197.633408,336.939636 
	C196.360916,334.339050 196.089188,331.134888 198.642822,328.202332 
	C202.454163,326.139801 206.890884,325.849976 209.173508,321.441895 
	C212.925110,320.632385 214.138443,322.464569 213.999741,325.774231 
	C213.582626,335.725616 216.419479,345.655029 214.172211,355.640228 
	C213.899353,356.852661 214.275986,358.324005 214.694199,359.559418 
	C216.375259,364.525391 216.188690,369.380493 214.099716,374.565094 
	C213.835739,374.947296 213.654556,374.959198 213.201340,374.984222 
z"/>
<path fill="#713EEE" opacity="1.000000" stroke="none" 
	d="
M228.979248,223.356354 
	C234.772812,224.229843 236.807816,228.224442 234.167175,233.710129 
	C227.406662,234.813583 227.135620,234.550079 228.112854,228.092026 
	C228.332581,226.639908 228.658096,225.203812 228.979248,223.356354 
z"/>
<path fill="#713EEE" opacity="1.000000" stroke="none" 
	d="
M228.106964,307.348938 
	C231.896194,309.240692 232.110413,311.641144 228.373581,314.921753 
	C228.740417,312.583282 229.107513,310.164459 228.106964,307.348938 
z"/>
<path fill="#6246E7" opacity="1.000000" stroke="none" 
	d="
M218.420807,393.646667 
	C217.639618,392.312744 217.143372,391.055389 217.043076,389.767181 
	C216.589447,383.940155 217.251694,383.247284 223.537018,383.011353 
	C227.028275,383.038635 230.092026,383.062012 233.614471,383.105713 
	C237.226166,385.771637 235.963684,389.046600 235.170624,392.548553 
	C229.694931,394.779114 224.255508,393.553345 218.420807,393.646667 
z"/>
<path fill="#713EEE" opacity="1.000000" stroke="none" 
	d="
M235.381516,392.814148 
	C231.645935,390.203491 234.339859,386.897491 234.046814,383.518616 
	C237.549881,383.403870 241.025940,383.689972 244.503494,383.956421 
	C246.499954,384.109406 248.809738,383.888428 248.465317,387.000580 
	C248.179916,389.579498 247.726105,391.981293 244.228210,392.046082 
	C241.412720,392.098206 238.603821,392.506927 235.381516,392.814148 
z"/>
<path fill="#6942E7" opacity="1.000000" stroke="none" 
	d="
M227.938202,119.264130 
	C229.477356,122.119110 232.006134,123.167610 235.322220,123.023827 
	C238.139618,122.901665 240.959213,123.057388 243.546112,124.404701 
	C241.668152,131.765762 236.413147,132.993027 229.481354,132.026611 
	C228.962906,130.343079 228.413254,128.792984 227.329117,127.561882 
	C224.802139,124.692314 225.154144,122.090660 227.938202,119.264130 
z"/>
<path fill="#4A55F5" opacity="1.000000" stroke="none" 
	d="
M198.543564,327.927826 
	C198.584900,334.748840 202.736450,340.807129 202.133636,347.837708 
	C201.696838,352.932129 200.064697,358.272156 203.511612,363.298187 
	C204.690414,365.017059 202.984619,367.427063 202.023682,369.770508 
	C200.847504,369.736542 199.846329,369.361084 198.547699,368.863098 
	C196.279099,365.258484 192.571747,363.641754 189.590714,361.470795 
	C184.931000,358.077393 182.275696,353.421387 179.734344,348.734131 
	C176.098938,342.028992 178.282074,335.321045 185.539505,332.990570 
	C189.925888,331.582062 193.894760,329.435486 198.543564,327.927826 
z"/>
</svg>